0
SECTION
2
HEADER
9
$INSUNITS
70
4
0
ENDSEC
0
SECTION
2
TABLES
0
TABLE
2
LTYPE
0
LTYPE
72
65
70
64
2
CONTINUOUS
3
______
73
0
40
0
0
ENDTAB
0
TABLE
2
LAYER
0
ENDTAB
0
ENDSEC
0
SECTION
2
ENTITIES
0
LINE
8
0
10
204.1941637
20
-131.719969
11
91.5
21
-131.7199995
0
LINE
8
0
10
89.5
20
-129.7199995
11
89.5
21
-52.6023374
0
LINE
8
0
10
90.432014
20
-50.9113596
11
108.2285528
21
-39.6714403
0
LINE
8
0
10
108.8114676
20
-39.4221331
11
128.2611401
21
-34.559715
0
LINE
8
0
10
128.7462113
20
-34.5
11
147.3094381
21
-34.5
0
LINE
8
0
10
147.6871329
20
-34.5359871
11
184.8776948
21
-41.6880182
0
LINE
8
0
10
186.5
20
-43.6520311
11
186.5
21
-84.9206675
0
LINE
8
0
10
187.0868797
20
-86.3359734
11
211.8745836
21
-111.0853989
0
LINE
8
0
10
212.3408486
20
-113.184745
11
206.073549
21
-130.4040092
0
ARC
8
0
10
91.5
20
-129.7199995
40
2
50
180
51
270
0
ARC
8
0
10
91.5
20
-52.6023374
40
2
50
122.2756448
51
180
0
ARC
8
0
10
109.2965388
20
-41.3624181
40
2
50
104.0362421
51
122.2756448
0
ARC
8
0
10
128.7462113
20
-36.5
40
2
50
90
51
104.0362421
0
ARC
8
0
10
147.3094381
20
-36.5
40
2
50
79.1144721
51
90
0
ARC
8
0
10
184.5
20
-43.6520311
40
2
50
0
51
79.1144721
0
ARC
8
0
10
188.5
20
-84.9206675
40
2
50
180
51
225.044274
0
ARC
8
0
10
210.4614633
20
-112.5007048
40
2
50
340.0000019
51
45.044274
0
ARC
8
0
10
204.1941637
20
-129.719969
40
2
50
270
51
340.0000019
0
LINE
8
0
10
90.5
20
-129.61
11
123.5
21
-129.61
0
LINE
8
0
10
123.5
20
-129.61
11
123.5
21
-111.61
0
LINE
8
0
10
123.5
20
-111.61
11
90.5
21
-111.61
0
LINE
8
0
10
90.5
20
-111.61
11
90.5
21
-129.61
0
LINE
8
0
10
127.025
20
-126.99
11
127.025
21
-132.84
0
LINE
8
0
10
127.025
20
-132.84
11
135.825
21
-132.84
0
LINE
8
0
10
135.825
20
-132.84
11
135.825
21
-126.99
0
LINE
8
0
10
135.825
20
-126.99
11
127.025
21
-126.99
0
LINE
8
0
10
137.825
20
-131.475
11
146.825
21
-131.475
0
LINE
8
0
10
146.825
20
-131.475
11
146.825
21
-127.975
0
LINE
8
0
10
146.825
20
-127.975
11
137.825
21
-127.975
0
LINE
8
0
10
137.825
20
-127.975
11
137.825
21
-131.475
0
LINE
8
0
10
202.6064232
20
-102.1717514
11
194.8282486
21
-94.3935768
0
LINE
8
0
10
194.8282486
20
-94.3935768
11
188.3935768
21
-100.8282486
0
LINE
8
0
10
188.3935768
20
-100.8282486
11
196.1717514
21
-108.6064232
0
LINE
8
0
10
196.1717514
20
-108.6064232
11
202.6064232
21
-102.1717514
0
LINE
8
0
10
123.2
20
-108.45
11
123.2
21
-99.55
0
LINE
8
0
10
123.2
20
-99.55
11
114.6
21
-99.55
0
LINE
8
0
10
114.6
20
-99.55
11
114.6
21
-108.45
0
LINE
8
0
10
114.6
20
-108.45
11
123.2
21
-108.45
0
CIRCLE
8
0
10
112
20
-59.5
40
1.6
0
CIRCLE
8
0
10
112
20
-97.5
40
1.6
0
CIRCLE
8
0
10
164
20
-59.5
40
1.6
0
CIRCLE
8
0
10
180.1355861
20
-103.3241015
40
1.6
0
LINE
8
0
10
93
20
-88
11
107
21
-88
0
LINE
8
0
10
107
20
-88
11
107
21
-74
0
LINE
8
0
10
107
20
-74
11
93
21
-74
0
LINE
8
0
10
93
20
-74
11
93
21
-88
0
LINE
8
0
10
93
20
-69
11
107
21
-69
0
LINE
8
0
10
107
20
-69
11
107
21
-55
0
LINE
8
0
10
107
20
-55
11
93
21
-55
0
LINE
8
0
10
93
20
-55
11
93
21
-69
0
LINE
8
0
10
112
20
-95
11
126
21
-95
0
LINE
8
0
10
126
20
-95
11
126
21
-81
0
LINE
8
0
10
126
20
-81
11
112
21
-81
0
LINE
8
0
10
112
20
-81
11
112
21
-95
0
LINE
8
0
10
112
20
-76
11
126
21
-76
0
LINE
8
0
10
126
20
-76
11
126
21
-62
0
LINE
8
0
10
126
20
-62
11
112
21
-62
0
LINE
8
0
10
112
20
-62
11
112
21
-76
0
LINE
8
0
10
112
20
-57
11
126
21
-57
0
LINE
8
0
10
126
20
-57
11
126
21
-43
0
LINE
8
0
10
126
20
-43
11
112
21
-43
0
LINE
8
0
10
112
20
-43
11
112
21
-57
0
LINE
8
0
10
131
20
-90
11
145
21
-90
0
LINE
8
0
10
145
20
-90
11
145
21
-76
0
LINE
8
0
10
145
20
-76
11
131
21
-76
0
LINE
8
0
10
131
20
-76
11
131
21
-90
0
LINE
8
0
10
131
20
-71
11
145
21
-71
0
LINE
8
0
10
145
20
-71
11
145
21
-57
0
LINE
8
0
10
145
20
-57
11
131
21
-57
0
LINE
8
0
10
131
20
-57
11
131
21
-71
0
LINE
8
0
10
131
20
-52
11
145
21
-52
0
LINE
8
0
10
145
20
-52
11
145
21
-38
0
LINE
8
0
10
145
20
-38
11
131
21
-38
0
LINE
8
0
10
131
20
-38
11
131
21
-52
0
LINE
8
0
10
150
20
-95
11
164
21
-95
0
LINE
8
0
10
164
20
-95
11
164
21
-81
0
LINE
8
0
10
164
20
-81
11
150
21
-81
0
LINE
8
0
10
150
20
-81
11
150
21
-95
0
LINE
8
0
10
150
20
-76
11
164
21
-76
0
LINE
8
0
10
164
20
-76
11
164
21
-62
0
LINE
8
0
10
164
20
-62
11
150
21
-62
0
LINE
8
0
10
150
20
-62
11
150
21
-76
0
LINE
8
0
10
150
20
-57
11
164
21
-57
0
LINE
8
0
10
164
20
-57
11
164
21
-43
0
LINE
8
0
10
164
20
-43
11
150
21
-43
0
LINE
8
0
10
150
20
-43
11
150
21
-57
0
LINE
8
0
10
169
20
-97.5
11
183
21
-97.5
0
LINE
8
0
10
183
20
-97.5
11
183
21
-83.5
0
LINE
8
0
10
183
20
-83.5
11
169
21
-83.5
0
LINE
8
0
10
169
20
-83.5
11
169
21
-97.5
0
LINE
8
0
10
169
20
-78.5
11
183
21
-78.5
0
LINE
8
0
10
183
20
-78.5
11
183
21
-64.5
0
LINE
8
0
10
183
20
-64.5
11
169
21
-64.5
0
LINE
8
0
10
169
20
-64.5
11
169
21
-78.5
0
LINE
8
0
10
169
20
-59.5
11
183
21
-59.5
0
LINE
8
0
10
183
20
-59.5
11
183
21
-45.5
0
LINE
8
0
10
183
20
-45.5
11
169
21
-45.5
0
LINE
8
0
10
169
20
-45.5
11
169
21
-59.5
0
LINE
8
0
10
150
20
-117.8
11
164
21
-117.8
0
LINE
8
0
10
164
20
-117.8
11
164
21
-103.8
0
LINE
8
0
10
164
20
-103.8
11
150
21
-103.8
0
LINE
8
0
10
150
20
-103.8
11
150
21
-117.8
0
LINE
8
0
10
170.3767369
20
-118.3578922
11
184.1640454
21
-120.7889667
0
LINE
8
0
10
184.1640454
20
-120.7889667
11
186.5951199
21
-107.0016582
0
LINE
8
0
10
186.5951199
20
-107.0016582
11
172.8078114
21
-104.5705837
0
LINE
8
0
10
172.8078114
20
-104.5705837
11
170.3767369
21
-118.3578922
0
LINE
8
0
10
190.3470286
20
-122.4456919
11
203.5027252
21
-127.2339739
0
LINE
8
0
10
203.5027252
20
-127.2339739
11
208.2910072
21
-114.0782773
0
LINE
8
0
10
208.2910072
20
-114.0782773
11
195.1353106
21
-109.2899953
0
LINE
8
0
10
195.1353106
20
-109.2899953
11
190.3470286
21
-122.4456919
0
ENDSEC
0
EOF