0
SECTION
2
HEADER
9
$INSUNITS
70
4
0
ENDSEC
0
SECTION
2
TABLES
0
TABLE
2
LTYPE
0
LTYPE
72
65
70
64
2
CONTINUOUS
3
______
73
0
40
0
0
ENDTAB
0
TABLE
2
LAYER
0
ENDTAB
0
ENDSEC
0
SECTION
2
ENTITIES
0
LINE
8
0
10
88.5
20
-132.7200003
11
206.2947865
21
-132.7199684
0
LINE
8
0
10
88.5
20
-132.7200003
11
88.5
21
-50.9488313
0
LINE
8
0
10
88.5
20
-50.9488313
11
108.1017306
21
-38.5687909
0
LINE
8
0
10
108.1017306
20
-38.5687909
11
128.3768944
21
-33.5
0
LINE
8
0
10
128.3768944
20
-33.5
11
147.5952809
21
-33.5
0
LINE
8
0
10
147.6888474
20
-33.5179936
11
147.5952809
21
-33.5
0
LINE
8
0
10
147.6888474
20
-33.5179936
11
187.5
21
-41.1739844
0
LINE
8
0
10
187.5
20
-85.3353337
11
187.5
21
-41.1739844
0
LINE
8
0
10
187.5
20
-85.3353337
11
213.9347712
21
-111.729283
0
LINE
8
0
10
206.2947865
20
-132.7199684
11
213.9347712
21
-111.729283
0
LINE
8
0
10
85.5
20
-135.7200011
11
208.3954093
21
-135.7199678
0
LINE
8
0
10
85.5
20
-135.7200011
11
85.5
21
-49.2953253
0
LINE
8
0
10
85.5
20
-49.2953253
11
106.9069223
21
-35.7751638
0
LINE
8
0
10
106.9069223
20
-35.7751638
11
128.0075775
21
-30.5
0
LINE
8
0
10
128.0075775
20
-30.5
11
147.8811237
21
-30.5
0
LINE
8
0
10
147.8811237
20
-30.5
11
190.5
21
-38.6959378
0
LINE
8
0
10
190.5
20
-84.0913348
11
190.5
21
-38.6959378
0
LINE
8
0
10
190.5
20
-84.0913348
11
217.4080791
21
-110.9578611
0
LINE
8
0
10
208.3954093
20
-135.7199678
11
217.4080791
21
-110.9578611
0
LINE
8
0
10
87.3
20
-133.9200006
11
207.1350357
21
-133.9199682
0
LINE
8
0
10
87.3
20
-133.9200006
11
87.3
21
-50.2874289
0
LINE
8
0
10
87.3
20
-50.2874289
11
107.6238073
21
-37.4513401
0
LINE
8
0
10
107.6238073
20
-37.4513401
11
128.2291676
21
-32.3
0
LINE
8
0
10
128.2291676
20
-32.3
11
147.709618
21
-32.3
0
LINE
8
0
10
147.709618
20
-32.3
11
188.7
21
-40.1827658
0
LINE
8
0
10
188.7
20
-84.8377342
11
188.7
21
-40.1827658
0
LINE
8
0
10
188.7
20
-84.8377342
11
215.3240944
21
-111.4207142
0
LINE
8
0
10
207.1350357
20
-133.9199682
11
215.3240944
21
-111.4207142
0
LINE
8
0
10
86.7
20
-134.5200008
11
207.5551602
21
-134.5199681
0
LINE
8
0
10
86.7
20
-134.5200008
11
86.7
21
-49.9567277
0
LINE
8
0
10
86.7
20
-49.9567277
11
107.3848456
21
-36.8926147
0
LINE
8
0
10
107.3848456
20
-36.8926147
11
128.1553042
21
-31.7
0
LINE
8
0
10
128.1553042
20
-31.7
11
147.7667866
21
-31.7
0
LINE
8
0
10
148.0287727
20
-31.7503819
11
147.7667866
21
-31.7
0
LINE
8
0
10
148.0287727
20
-31.7503819
11
189.3
21
-39.6871564
0
LINE
8
0
10
189.3
20
-84.5889344
11
189.3
21
-39.6871564
0
LINE
8
0
10
189.3
20
-84.5889344
11
216.018756
21
-111.2664299
0
LINE
8
0
10
207.5551602
20
-134.5199681
11
216.018756
21
-111.2664299
0
CIRCLE
8
0
10
112
20
-59.5
40
2.2
0
CIRCLE
8
0
10
112
20
-97.5
40
2.2
0
CIRCLE
8
0
10
164
20
-59.5
40
2.2
0
CIRCLE
8
0
10
180.1355861
20
-103.3241015
40
2.2
0
LINE
8
0
10
90.5
20
-129.61
11
123.5
21
-129.61
0
LINE
8
0
10
123.5
20
-129.61
11
123.5
21
-111.61
0
LINE
8
0
10
123.5
20
-111.61
11
90.5
21
-111.61
0
LINE
8
0
10
90.5
20
-111.61
11
90.5
21
-129.61
0
LINE
8
0
10
127.025
20
-126.99
11
127.025
21
-132.84
0
LINE
8
0
10
127.025
20
-132.84
11
135.825
21
-132.84
0
LINE
8
0
10
135.825
20
-132.84
11
135.825
21
-126.99
0
LINE
8
0
10
135.825
20
-126.99
11
127.025
21
-126.99
0
LINE
8
0
10
137.825
20
-131.475
11
146.825
21
-131.475
0
LINE
8
0
10
146.825
20
-131.475
11
146.825
21
-127.975
0
LINE
8
0
10
146.825
20
-127.975
11
137.825
21
-127.975
0
LINE
8
0
10
137.825
20
-127.975
11
137.825
21
-131.475
0
LINE
8
0
10
202.6064232
20
-102.1717514
11
194.8282486
21
-94.3935768
0
LINE
8
0
10
194.8282486
20
-94.3935768
11
188.3935768
21
-100.8282486
0
LINE
8
0
10
188.3935768
20
-100.8282486
11
196.1717514
21
-108.6064232
0
LINE
8
0
10
196.1717514
20
-108.6064232
11
202.6064232
21
-102.1717514
0
LINE
8
0
10
123.2
20
-108.45
11
123.2
21
-99.55
0
LINE
8
0
10
123.2
20
-99.55
11
114.6
21
-99.55
0
LINE
8
0
10
114.6
20
-99.55
11
114.6
21
-108.45
0
LINE
8
0
10
114.6
20
-108.45
11
123.2
21
-108.45
0
ENDSEC
0
EOF