0
SECTION
2
HEADER
9
$INSUNITS
70
4
0
ENDSEC
0
SECTION
2
TABLES
0
TABLE
2
LTYPE
0
LTYPE
72
65
70
64
2
CONTINUOUS
3
______
73
0
40
0
0
ENDTAB
0
TABLE
2
LAYER
0
ENDTAB
0
ENDSEC
0
SECTION
2
ENTITIES
0
LINE
8
0
10
88.5
20
-132.7200003
11
206.2947865
21
-132.7199684
0
LINE
8
0
10
88.5
20
-132.7200003
11
88.5
21
-50.9488313
0
LINE
8
0
10
88.5
20
-50.9488313
11
108.1017306
21
-38.5687909
0
LINE
8
0
10
108.1017306
20
-38.5687909
11
128.3768944
21
-33.5
0
LINE
8
0
10
128.3768944
20
-33.5
11
147.5952809
21
-33.5
0
LINE
8
0
10
147.6888474
20
-33.5179936
11
147.5952809
21
-33.5
0
LINE
8
0
10
147.6888474
20
-33.5179936
11
187.5
21
-41.1739844
0
LINE
8
0
10
187.5
20
-85.3353337
11
187.5
21
-41.1739844
0
LINE
8
0
10
187.5
20
-85.3353337
11
213.9347712
21
-111.729283
0
LINE
8
0
10
206.2947865
20
-132.7199684
11
213.9347712
21
-111.729283
0
LINE
8
0
10
85.5
20
-135.7200011
11
208.3954093
21
-135.7199678
0
LINE
8
0
10
85.5
20
-135.7200011
11
85.5
21
-49.2953253
0
LINE
8
0
10
85.5
20
-49.2953253
11
106.9069223
21
-35.7751638
0
LINE
8
0
10
106.9069223
20
-35.7751638
11
128.0075775
21
-30.5
0
LINE
8
0
10
128.0075775
20
-30.5
11
147.8811237
21
-30.5
0
LINE
8
0
10
147.8811237
20
-30.5
11
190.5
21
-38.6959378
0
LINE
8
0
10
190.5
20
-84.0913348
11
190.5
21
-38.6959378
0
LINE
8
0
10
190.5
20
-84.0913348
11
217.4080791
21
-110.9578611
0
LINE
8
0
10
208.3954093
20
-135.7199678
11
217.4080791
21
-110.9578611
0
LINE
8
0
10
87.3
20
-133.9200006
11
207.1350357
21
-133.9199682
0
LINE
8
0
10
87.3
20
-133.9200006
11
87.3
21
-50.2874289
0
LINE
8
0
10
87.3
20
-50.2874289
11
107.6238073
21
-37.4513401
0
LINE
8
0
10
107.6238073
20
-37.4513401
11
128.2291676
21
-32.3
0
LINE
8
0
10
128.2291676
20
-32.3
11
147.709618
21
-32.3
0
LINE
8
0
10
147.709618
20
-32.3
11
188.7
21
-40.1827658
0
LINE
8
0
10
188.7
20
-84.8377342
11
188.7
21
-40.1827658
0
LINE
8
0
10
188.7
20
-84.8377342
11
215.3240944
21
-111.4207142
0
LINE
8
0
10
207.1350357
20
-133.9199682
11
215.3240944
21
-111.4207142
0
LINE
8
0
10
86.7
20
-134.5200008
11
207.5551602
21
-134.5199681
0
LINE
8
0
10
86.7
20
-134.5200008
11
86.7
21
-49.9567277
0
LINE
8
0
10
86.7
20
-49.9567277
11
107.3848456
21
-36.8926147
0
LINE
8
0
10
107.3848456
20
-36.8926147
11
128.1553042
21
-31.7
0
LINE
8
0
10
128.1553042
20
-31.7
11
147.7667866
21
-31.7
0
LINE
8
0
10
148.0287727
20
-31.7503819
11
147.7667866
21
-31.7
0
LINE
8
0
10
148.0287727
20
-31.7503819
11
189.3
21
-39.6871564
0
LINE
8
0
10
189.3
20
-84.5889344
11
189.3
21
-39.6871564
0
LINE
8
0
10
189.3
20
-84.5889344
11
216.018756
21
-111.2664299
0
LINE
8
0
10
207.5551602
20
-134.5199681
11
216.018756
21
-111.2664299
0
CIRCLE
8
0
10
112
20
-59.5
40
2.2
0
CIRCLE
8
0
10
112
20
-97.5
40
2.2
0
CIRCLE
8
0
10
164
20
-59.5
40
2.2
0
CIRCLE
8
0
10
180.1355861
20
-103.3241015
40
2.2
0
LINE
8
0
10
90.5
20
-129.61
11
123.5
21
-129.61
0
LINE
8
0
10
123.5
20
-129.61
11
123.5
21
-111.61
0
LINE
8
0
10
123.5
20
-111.61
11
90.5
21
-111.61
0
LINE
8
0
10
90.5
20
-111.61
11
90.5
21
-129.61
0
LINE
8
0
10
127.025
20
-126.99
11
127.025
21
-132.84
0
LINE
8
0
10
127.025
20
-132.84
11
135.825
21
-132.84
0
LINE
8
0
10
135.825
20
-132.84
11
135.825
21
-126.99
0
LINE
8
0
10
135.825
20
-126.99
11
127.025
21
-126.99
0
LINE
8
0
10
137.825
20
-131.475
11
146.825
21
-131.475
0
LINE
8
0
10
146.825
20
-131.475
11
146.825
21
-127.975
0
LINE
8
0
10
146.825
20
-127.975
11
137.825
21
-127.975
0
LINE
8
0
10
137.825
20
-127.975
11
137.825
21
-131.475
0
LINE
8
0
10
202.6064232
20
-102.1717514
11
194.8282486
21
-94.3935768
0
LINE
8
0
10
194.8282486
20
-94.3935768
11
188.3935768
21
-100.8282486
0
LINE
8
0
10
188.3935768
20
-100.8282486
11
196.1717514
21
-108.6064232
0
LINE
8
0
10
196.1717514
20
-108.6064232
11
202.6064232
21
-102.1717514
0
LINE
8
0
10
123.2
20
-108.45
11
123.2
21
-99.55
0
LINE
8
0
10
123.2
20
-99.55
11
114.6
21
-99.55
0
LINE
8
0
10
114.6
20
-99.55
11
114.6
21
-108.45
0
LINE
8
0
10
114.6
20
-108.45
11
123.2
21
-108.45
0
LINE
8
0
10
93
20
-107
11
107
21
-107
0
LINE
8
0
10
107
20
-107
11
107
21
-93
0
LINE
8
0
10
107
20
-93
11
93
21
-93
0
LINE
8
0
10
93
20
-93
11
93
21
-107
0
LINE
8
0
10
93
20
-88
11
107
21
-88
0
LINE
8
0
10
107
20
-88
11
107
21
-74
0
LINE
8
0
10
107
20
-74
11
93
21
-74
0
LINE
8
0
10
93
20
-74
11
93
21
-88
0
LINE
8
0
10
93
20
-69
11
107
21
-69
0
LINE
8
0
10
107
20
-69
11
107
21
-55
0
LINE
8
0
10
107
20
-55
11
93
21
-55
0
LINE
8
0
10
93
20
-55
11
93
21
-69
0
LINE
8
0
10
112
20
-95
11
126
21
-95
0
LINE
8
0
10
126
20
-95
11
126
21
-81
0
LINE
8
0
10
126
20
-81
11
112
21
-81
0
LINE
8
0
10
112
20
-81
11
112
21
-95
0
LINE
8
0
10
112
20
-76
11
126
21
-76
0
LINE
8
0
10
126
20
-76
11
126
21
-62
0
LINE
8
0
10
126
20
-62
11
112
21
-62
0
LINE
8
0
10
112
20
-62
11
112
21
-76
0
LINE
8
0
10
112
20
-57
11
126
21
-57
0
LINE
8
0
10
126
20
-57
11
126
21
-43
0
LINE
8
0
10
126
20
-43
11
112
21
-43
0
LINE
8
0
10
112
20
-43
11
112
21
-57
0
LINE
8
0
10
131
20
-90
11
145
21
-90
0
LINE
8
0
10
145
20
-90
11
145
21
-76
0
LINE
8
0
10
145
20
-76
11
131
21
-76
0
LINE
8
0
10
131
20
-76
11
131
21
-90
0
LINE
8
0
10
131
20
-71
11
145
21
-71
0
LINE
8
0
10
145
20
-71
11
145
21
-57
0
LINE
8
0
10
145
20
-57
11
131
21
-57
0
LINE
8
0
10
131
20
-57
11
131
21
-71
0
LINE
8
0
10
131
20
-52
11
145
21
-52
0
LINE
8
0
10
145
20
-52
11
145
21
-38
0
LINE
8
0
10
145
20
-38
11
131
21
-38
0
LINE
8
0
10
131
20
-38
11
131
21
-52
0
LINE
8
0
10
150
20
-95
11
164
21
-95
0
LINE
8
0
10
164
20
-95
11
164
21
-81
0
LINE
8
0
10
164
20
-81
11
150
21
-81
0
LINE
8
0
10
150
20
-81
11
150
21
-95
0
LINE
8
0
10
150
20
-76
11
164
21
-76
0
LINE
8
0
10
164
20
-76
11
164
21
-62
0
LINE
8
0
10
164
20
-62
11
150
21
-62
0
LINE
8
0
10
150
20
-62
11
150
21
-76
0
LINE
8
0
10
150
20
-57
11
164
21
-57
0
LINE
8
0
10
164
20
-57
11
164
21
-43
0
LINE
8
0
10
164
20
-43
11
150
21
-43
0
LINE
8
0
10
150
20
-43
11
150
21
-57
0
LINE
8
0
10
169
20
-97.5
11
183
21
-97.5
0
LINE
8
0
10
183
20
-97.5
11
183
21
-83.5
0
LINE
8
0
10
183
20
-83.5
11
169
21
-83.5
0
LINE
8
0
10
169
20
-83.5
11
169
21
-97.5
0
LINE
8
0
10
169
20
-78.5
11
183
21
-78.5
0
LINE
8
0
10
183
20
-78.5
11
183
21
-64.5
0
LINE
8
0
10
183
20
-64.5
11
169
21
-64.5
0
LINE
8
0
10
169
20
-64.5
11
169
21
-78.5
0
LINE
8
0
10
169
20
-59.5
11
183
21
-59.5
0
LINE
8
0
10
183
20
-59.5
11
183
21
-45.5
0
LINE
8
0
10
183
20
-45.5
11
169
21
-45.5
0
LINE
8
0
10
169
20
-45.5
11
169
21
-59.5
0
LINE
8
0
10
160.2005475
20
-117.6341123
11
174.1472733
21
-118.8542927
0
LINE
8
0
10
174.1472733
20
-118.8542927
11
175.3674537
21
-104.9075669
0
LINE
8
0
10
175.3674537
20
-104.9075669
11
161.4207279
21
-103.6873865
0
LINE
8
0
10
161.4207279
20
-103.6873865
11
160.2005475
21
-117.6341123
0
LINE
8
0
10
180.4511213
20
-119.9658312
11
193.9740829
21
-123.5892978
0
LINE
8
0
10
193.9740829
20
-123.5892978
11
197.5975495
21
-110.0663362
0
LINE
8
0
10
197.5975495
20
-110.0663362
11
184.0745879
21
-106.4428696
0
LINE
8
0
10
184.0745879
20
-106.4428696
11
180.4511213
21
-119.9658312
0
LINE
8
0
10
90.25
20
-109.75
11
109.75
21
-109.75
0
LINE
8
0
10
109.75
20
-109.75
11
109.75
21
-97.75
0
LINE
8
0
10
90.25
20
-109.75
11
90.25
21
-52.25
0
LINE
8
0
10
109.25
20
-52.25
11
90.25
21
-52.25
0
LINE
8
0
10
109.75
20
-97.75
11
128.75
21
-97.75
0
LINE
8
0
10
128.75
20
-97.75
11
128.75
21
-92.75
0
LINE
8
0
10
128.25
20
-40.25
11
109.25
21
-40.25
0
LINE
8
0
10
109.25
20
-40.25
11
109.25
21
-52.25
0
LINE
8
0
10
128.75
20
-92.75
11
147.25
21
-92.75
0
LINE
8
0
10
147.75
20
-40.25
11
147.75
21
-35.25
0
LINE
8
0
10
147.75
20
-35.25
11
128.25
21
-35.25
0
LINE
8
0
10
128.25
20
-35.25
11
128.25
21
-40.25
0
LINE
8
0
10
147.25
20
-97.75
11
159.1796774
21
-97.75
0
LINE
8
0
10
147.25
20
-92.75
11
147.25
21
-97.75
0
LINE
8
0
10
166.75
20
-42.75
11
166.75
21
-40.25
0
LINE
8
0
10
166.75
20
-40.25
11
147.75
21
-40.25
0
LINE
8
0
10
185.75
20
-104.0447854
11
185.75
21
-42.75
0
LINE
8
0
10
185.75
20
-42.75
11
166.75
21
-42.75
0
LINE
8
0
10
157.2213338
20
-120.1339694
11
176.8684644
21
-121.8528706
0
LINE
8
0
10
157.2213338
20
-120.1339694
11
159.1796774
21
-97.75
0
LINE
8
0
10
176.8684644
20
-121.8528706
11
195.9186265
21
-126.9573462
0
LINE
8
0
10
195.9186265
20
-126.9573462
11
200.9655979
21
-108.1217926
0
LINE
8
0
10
185.75
20
-104.0447854
11
200.9655979
21
-108.1217926
0
ENDSEC
0
EOF