0
SECTION
2
HEADER
9
$INSUNITS
70
4
9
$ACADVER
1
AC1014
9
$HANDSEED
5
FFFF
0
ENDSEC
0
SECTION
2
TABLES
0
TABLE
2
VPORT
5
8
100
AcDbSymbolTable
0
ENDTAB
0
TABLE
2
LTYPE
5
5
100
AcDbSymbolTable
0
LTYPE
5
14
100
AcDbSymbolTableRecord
100
AcDbLinetypeTableRecord
2
BYBLOCK
70
0
0
LTYPE
5
15
100
AcDbSymbolTableRecord
100
AcDbLinetypeTableRecord
2
BYLAYER
70
0
0
LTYPE
5
16
100
AcDbSymbolTableRecord
100
AcDbLinetypeTableRecord
2
DASHED
70
0
3
Dashed __ __ __ __ __ __ __ __ __ __ __ __ __ _
72
65
73
2
40
0.75
49
0.5
74
0
49
-0.25
74
0
0
ENDTAB
0
TABLE
2
LAYER
5
2
100
AcDbSymbolTable
70
3
0
LAYER
5
50
100
AcDbSymbolTableRecord
100
AcDbLayerTableRecord
2
1
70
0
62
7
6
DASHED
0
LAYER
5
51
100
AcDbSymbolTableRecord
100
AcDbLayerTableRecord
2
0
70
0
62
7
6
CONTINUOUS
0
ENDTAB
0
TABLE
2
STYLE
5
3
100
AcDbSymbolTable
70
1
0
STYLE
5
11
100
AcDbSymbolTableRecord
100
AcDbTextStyleTableRecord
2
STANDARD
70
0
0
ENDTAB
0
TABLE
2
VIEW
5
6
100
AcDbSymbolTable
70
0
0
ENDTAB
0
TABLE
2
UCS
5
7
100
AcDbSymbolTable
70
0
0
ENDTAB
0
TABLE
2
APPID
5
9
100
AcDbSymbolTable
70
2
0
APPID
5
12
100
AcDbSymbolTableRecord
100
AcDbRegAppTableRecord
2
ACAD
70
0
0
ENDTAB
0
TABLE
2
DIMSTYLE
5
A
100
AcDbSymbolTable
70
1
0
ENDTAB
0
TABLE
2
BLOCK_RECORD
5
1
100
AcDbSymbolTable
70
1
0
BLOCK_RECORD
5
1F
100
AcDbSymbolTableRecord
100
AcDbBlockTableRecord
2
*MODEL_SPACE
0
BLOCK_RECORD
5
1B
100
AcDbSymbolTableRecord
100
AcDbBlockTableRecord
2
*PAPER_SPACE
0
ENDTAB
0
ENDSEC
0
SECTION
2
BLOCKS
0
BLOCK
5
20
100
AcDbEntity
100
AcDbBlockBegin
2
*MODEL_SPACE
0
ENDBLK
5
21
100
AcDbEntity
100
AcDbBlockEnd
0
BLOCK
5
1C
100
AcDbEntity
100
AcDbBlockBegin
2
*PAPER_SPACE
0
ENDBLK
5
1D
100
AcDbEntity
100
AcDbBlockEnd
0
ENDSEC
0
SECTION
2
ENTITIES
0
LWPOLYLINE
5
100
100
AcDbEntity
8
0
100
AcDbPolyline
90
10
70
1
43
0.0
10
158.5
20
-112.72000030000001
10
276.29478649999999
20
-112.7199684
10
283.9347712
20
-91.729283000000024
10
257.5
20
-65.335333700000007
10
257.5
20
-21.173984399999995
10
217.68884740000004
20
-13.517993599999997
10
217.59528090000003
20
-13.5
10
198.37689440000003
20
-13.5
10
178.10173059999997
20
-18.568790899999996
10
158.5
20
-30.948831299999995
0
LWPOLYLINE
5
101
100
AcDbEntity
8
0
100
AcDbPolyline
90
9
70
1
43
0.0
10
155.5
20
-115.72000109999999
10
278.39540930000004
20
-115.71996780000001
10
287.40807910000001
20
-90.957861100000002
10
260.5
20
-64.091334799999998
10
260.5
20
-18.695937799999996
10
217.88112369999999
20
-10.500000000000004
10
198.00757750000002
20
-10.500000000000004
10
176.90692230000002
20
-15.775163799999996
10
155.5
20
-29.295325299999995
0
LWPOLYLINE
5
102
100
AcDbEntity
8
0
100
AcDbPolyline
90
9
70
1
43
0.0
10
157.30000000000001
20
-113.92000060000001
10
277.1350357
20
-113.91996820000001
10
285.32409440000004
20
-91.420714200000006
10
258.69999999999999
20
-64.8377342
10
258.69999999999999
20
-20.182765800000002
10
217.70961800000003
20
-12.300000000000001
10
198.22916759999998
20
-12.300000000000001
10
177.62380729999995
20
-17.451340100000007
10
157.30000000000001
20
-30.287428900000002
0
LWPOLYLINE
5
103
100
AcDbEntity
8
0
100
AcDbPolyline
90
10
70
1
43
0.0
10
156.69999999999999
20
-114.52000080000003
10
277.55516020000005
20
-114.5199681
10
286.018756
20
-91.266429900000006
10
259.30000000000001
20
-64.588934399999999
10
259.30000000000001
20
-19.687156399999999
10
218.02877269999999
20
-11.750381900000001
10
217.76678660000002
20
-11.699999999999999
10
198.15530420000002
20
-11.699999999999999
10
177.38484560000003
20
-16.892614700000003
10
156.69999999999999
20
-29.956727700000005
0
CIRCLE
5
104
100
AcDbEntity
8
0
100
AcDbCircle
10
182.00000000000003
20
-39.5
30
0
40
2.2000000000000002
210
0
220
0
230
1
0
CIRCLE
5
105
100
AcDbEntity
8
0
100
AcDbCircle
10
234.00000000000003
20
-39.5
30
0
40
2.2000000000000002
210
0
220
0
230
1
0
CIRCLE
5
106
100
AcDbEntity
8
0
100
AcDbCircle
10
250.13558610000001
20
-83.324101500000012
30
0
40
2.2000000000000002
210
0
220
0
230
1
0
LWPOLYLINE
5
107
100
AcDbEntity
8
0
100
AcDbPolyline
90
4
70
1
43
0.0
10
160.5
20
-109.61000000000001
10
193.5
20
-109.61000000000001
10
193.5
20
-91.610000000000014
10
160.5
20
-91.610000000000014
0
LINE
5
108
100
AcDbEntity
8
0
100
AcDbLine
10
197.02500000000001
20
-106.98999999999999
30
0
11
197.02500000000001
21
-112.84
31
0
0
LINE
5
109
100
AcDbEntity
8
0
100
AcDbLine
10
205.82499999999999
20
-112.84
30
0
11
205.82499999999999
21
-106.98999999999999
31
0
0
LINE
5
110
100
AcDbEntity
8
0
100
AcDbLine
10
205.82499999999999
20
-106.98999999999999
30
0
11
197.02500000000001
21
-106.98999999999999
31
0
0
LWPOLYLINE
5
111
100
AcDbEntity
8
0
100
AcDbPolyline
90
4
70
1
43
0.0
10
207.82499999999999
20
-111.47500000000001
10
216.82499999999999
20
-111.47500000000001
10
216.82499999999999
20
-107.97499999999999
10
207.82499999999999
20
-107.97499999999999
0
LINE
5
112
100
AcDbEntity
8
0
100
AcDbLine
10
272.60642319999999
20
-82.171751400000019
30
0
11
264.82824859999999
21
-74.393576799999991
31
0
0
LINE
5
113
100
AcDbEntity
8
0
100
AcDbLine
10
264.82824859999999
20
-74.393576799999991
30
0
11
258.39357680000001
21
-80.828248600000009
31
0
0
LINE
5
114
100
AcDbEntity
8
0
100
AcDbLine
10
268.90494470499783
20
-85.873229895002169
30
0
11
272.60642319999999
21
-82.171751400000019
31
0
0
LINE
5
115
100
AcDbEntity
8
0
100
AcDbLine
10
193.19999999999999
20
-88.450000000000003
30
0
11
193.19999999999999
21
-79.549999999999997
31
0
0
LINE
5
116
100
AcDbEntity
8
0
100
AcDbLine
10
193.19999999999999
20
-79.549999999999997
30
0
11
184.71247119800381
21
-79.549999999999997
31
0
0
LINE
5
117
100
AcDbEntity
8
0
100
AcDbLine
10
184.60000000000002
20
-79.690890230020685
30
0
11
184.60000000000002
21
-88.450000000000003
31
0
0
LINE
5
118
100
AcDbEntity
8
0
100
AcDbLine
10
184.60000000000002
20
-88.450000000000003
30
0
11
193.19999999999999
21
-88.450000000000003
31
0
0
LWPOLYLINE
5
119
100
AcDbEntity
8
0
100
AcDbPolyline
90
4
70
1
43
0.0
10
163
20
-68
10
177.00000000000003
20
-68
10
177.00000000000003
20
-54
10
163.00000000000006
20
-54
0
LWPOLYLINE
5
120
100
AcDbEntity
8
0
100
AcDbPolyline
90
4
70
1
43
0.0
10
163
20
-49
10
177.00000000000003
20
-49
10
177.00000000000003
20
-35
10
163.00000000000006
20
-35
0
LWPOLYLINE
5
121
100
AcDbEntity
8
0
100
AcDbPolyline
90
4
70
1
43
0.0
10
182.00000000000003
20
-75
10
196
20
-75
10
196
20
-61
10
182.00000000000003
20
-61
0
LWPOLYLINE
5
122
100
AcDbEntity
8
0
100
AcDbPolyline
90
4
70
1
43
0.0
10
182.00000000000003
20
-56.000000000000007
10
196
20
-56.000000000000007
10
196
20
-42
10
182.00000000000003
20
-42
0
LWPOLYLINE
5
123
100
AcDbEntity
8
0
100
AcDbPolyline
90
4
70
1
43
0.0
10
182.00000000000003
20
-37
10
196
20
-37
10
196
20
-23
10
182.00000000000003
20
-23
0
LWPOLYLINE
5
124
100
AcDbEntity
8
0
100
AcDbPolyline
90
4
70
1
43
0.0
10
201
20
-70
10
215
20
-70
10
215
20
-56.000000000000007
10
201
20
-56.000000000000007
0
LWPOLYLINE
5
125
100
AcDbEntity
8
0
100
AcDbPolyline
90
4
70
1
43
0.0
10
201
20
-51.000000000000007
10
215
20
-51.000000000000007
10
215
20
-37
10
201
20
-37
0
LWPOLYLINE
5
126
100
AcDbEntity
8
0
100
AcDbPolyline
90
4
70
1
43
0.0
10
201
20
-32
10
215
20
-32
10
215
20
-18.000000000000004
10
201
20
-18.000000000000004
0
LWPOLYLINE
5
127
100
AcDbEntity
8
0
100
AcDbPolyline
90
4
70
1
43
0.0
10
220
20
-75
10
234.00000000000003
20
-75
10
234.00000000000003
20
-61
10
220
20
-61
0
LWPOLYLINE
5
128
100
AcDbEntity
8
0
100
AcDbPolyline
90
4
70
1
43
0.0
10
220
20
-56.000000000000007
10
234.00000000000003
20
-56.000000000000007
10
234.00000000000003
20
-42
10
220
20
-42
0
LWPOLYLINE
5
129
100
AcDbEntity
8
0
100
AcDbPolyline
90
4
70
1
43
0.0
10
220
20
-37
10
234.00000000000003
20
-37
10
234.00000000000003
20
-23
10
220
20
-23
0
LWPOLYLINE
5
130
100
AcDbEntity
8
0
100
AcDbPolyline
90
4
70
1
43
0.0
10
239.00000000000003
20
-77.5
10
253
20
-77.5
10
253
20
-63.5
10
239.00000000000003
20
-63.5
0
LWPOLYLINE
5
131
100
AcDbEntity
8
0
100
AcDbPolyline
90
4
70
1
43
0.0
10
239.00000000000003
20
-58.500000000000007
10
253
20
-58.500000000000007
10
253
20
-44.5
10
239.00000000000003
20
-44.5
0
LWPOLYLINE
5
132
100
AcDbEntity
8
0
100
AcDbPolyline
90
4
70
1
43
0.0
10
239.00000000000003
20
-39.5
10
253
20
-39.5
10
253
20
-25.5
10
239.00000000000003
20
-25.5
0
LWPOLYLINE
5
133
100
AcDbEntity
8
0
100
AcDbPolyline
90
4
70
1
43
0.0
10
220
20
-97.800000000000011
10
234.00000000000003
20
-97.800000000000011
10
234.00000000000003
20
-83.800000000000011
10
220
20
-83.800000000000011
0
LWPOLYLINE
5
134
100
AcDbEntity
8
0
100
AcDbPolyline
90
4
70
1
43
0.0
10
240.37673690000003
20
-98.357892200000023
10
254.16404540000002
20
-100.78896670000003
10
256.59511990000004
20
-87.001658200000008
10
242.80781140000002
20
-84.5705837
0
LWPOLYLINE
5
135
100
AcDbEntity
8
0
100
AcDbPolyline
90
4
70
1
43
0.0
10
260.34702859999999
20
-102.4456919
10
273.50272519999999
20
-107.23397390000002
10
278.29100719999997
20
-94.078277300000011
10
265.13531060000003
20
-89.289995300000001
0
LINE
5
136
100
AcDbEntity
8
0
100
AcDbLine
10
158.5
20
-70.750000000000014
30
0
11
179.24999999999997
21
-70.750000000000014
31
0
0
LINE
5
137
100
AcDbEntity
8
0
100
AcDbLine
10
160.25
20
-70.750000000000014
30
0
11
160.25
21
-32.250000000000007
31
0
0
LINE
5
138
100
AcDbEntity
8
0
100
AcDbLine
10
179.25
20
-32.250000000000007
30
0
11
160.25
21
-32.250000000000007
31
0
0
LINE
5
139
100
AcDbEntity
8
0
100
AcDbLine
10
198.75
20
-77.75
30
0
11
198.75
21
-72.75
31
0
0
LINE
5
140
100
AcDbEntity
8
0
100
AcDbLine
10
179.24999999999997
20
-70.750000000000014
30
0
11
179.25
21
-77.75
31
0
0
LINE
5
141
100
AcDbEntity
8
0
100
AcDbLine
10
198.25000000000003
20
-20.250000000000004
30
0
11
179.25000000000006
21
-20.250000000000004
31
0
0
LINE
5
142
100
AcDbEntity
8
0
100
AcDbLine
10
179.25000000000006
20
-20.250000000000004
30
0
11
179.25
21
-32.250000000000007
31
0
0
LINE
5
143
100
AcDbEntity
8
0
100
AcDbLine
10
198.75
20
-72.75
30
0
11
217.25
21
-72.75
31
0
0
LINE
5
144
100
AcDbEntity
8
0
100
AcDbLine
10
217.75
20
-20.250000000000004
30
0
11
217.75
21
-15.250000000000004
31
0
0
LINE
5
145
100
AcDbEntity
8
0
100
AcDbLine
10
217.75
20
-15.250000000000004
30
0
11
198.25
21
-15.250000000000004
31
0
0
LINE
5
146
100
AcDbEntity
8
0
100
AcDbLine
10
198.25
20
-15.250000000000004
30
0
11
198.25000000000003
21
-20.250000000000004
31
0
0
LINE
5
147
100
AcDbEntity
8
0
100
AcDbLine
10
217.25
20
-115.71998436808941
30
0
11
217.25
21
-72.75
31
0
0
LINE
5
148
100
AcDbEntity
8
0
100
AcDbLine
10
236.75
20
-22.750000000000004
30
0
11
236.75
21
-20.250000000000004
31
0
0
LINE
5
149
100
AcDbEntity
8
0
100
AcDbLine
10
236.75
20
-20.250000000000004
30
0
11
217.75
21
-20.250000000000004
31
0
0
LINE
5
150
100
AcDbEntity
8
0
100
AcDbLine
10
255.75
20
-65.335333700000007
30
0
11
255.75
21
-22.750000000000004
31
0
0
LINE
5
151
100
AcDbEntity
8
0
100
AcDbLine
10
255.75
20
-22.750000000000004
30
0
11
236.75
21
-22.750000000000004
31
0
0
LINE
5
152
100
AcDbEntity
8
0
100
AcDbLine
10
217.25
20
-100.55
30
0
11
236.97217880000005
21
-100.55
31
0
0
LINE
5
153
100
AcDbEntity
8
0
100
AcDbLine
10
236.97217880000005
20
-100.55
30
0
11
256.61353830000002
21
-104.01330159999999
31
0
0
LINE
5
154
100
AcDbEntity
8
0
100
AcDbLine
10
255.75
20
-84.060217500000007
30
0
11
261.60799640000005
21
-85.09314040000001
31
0
0
LINE
5
155
100
AcDbEntity
8
0
100
AcDbLine
10
256.61353830000002
20
-104.01330159999999
30
0
11
275.14632460000001
21
-110.75868410000001
31
0
0
LINE
5
156
100
AcDbEntity
8
0
100
AcDbLine
10
273.34056451886585
20
-115.71996916967144
30
0
11
281.81571740000004
21
-92.434677900000025
31
0
0
LINE
5
157
100
AcDbEntity
8
0
100
AcDbLine
10
261.74829099999999
20
-85.130732100000017
30
0
11
283.46017944460493
21
-93.033213128411347
31
0
0
LINE
5
158
100
AcDbEntity
8
0
100
AcDbLine
10
257.5
20
-65.335333700000007
30
0
11
255.75
21
-65.335333700000007
31
0
0
LINE
5
159
100
AcDbEntity
8
0
100
AcDbLine
10
255.75
20
-84.060217500000007
30
0
11
255.75
21
-65.335333700000007
31
0
0
ARC
5
160
100
AcDbEntity
8
0
100
AcDbCircle
10
182.00000000000003
20
-77.5
30
0
40
2.2000000000000064
210
0
220
0
230
1
100
AcDbArc
50
270
51
353.47502115585615
0
LINE
5
161
100
AcDbEntity
8
0
100
AcDbLine
10
184.18574929943946
20
-77.75
30
0
11
198.75
21
-77.75
31
0
0
LINE
5
162
100
AcDbEntity
8
0
100
AcDbLine
10
182.00000000000003
20
-79.700000000000003
30
0
11
179.25
21
-79.700000000000003
31
0
0
LINE
5
163
100
AcDbEntity
8
0
100
AcDbLine
10
179.25
20
-79.700000000000003
30
0
11
179.25
21
-77.75
31
0
0
LINE
5
164
100
AcDbEntity
8
0
100
AcDbLine
10
158.5
20
-71.950000000000017
30
0
11
178.04999999999995
21
-71.950000000000017
31
0
0
LINE
5
165
100
AcDbEntity
8
0
100
AcDbLine
10
178.04999999999995
20
-71.950000000000017
30
0
11
178.05000000000001
21
-77.750000000000014
31
0
0
LINE
5
166
100
AcDbEntity
8
0
100
AcDbLine
10
178.05000000000001
20
-80.900000000000006
30
0
11
178.05000000000001
21
-77.750000000000014
31
0
0
LINE
5
167
100
AcDbEntity
8
0
100
AcDbLine
10
182.00000000000003
20
-80.900000000000006
30
0
11
178.05000000000001
21
-80.900000000000006
31
0
0
ARC
5
168
100
AcDbEntity
8
0
100
AcDbCircle
10
182.00000000000003
20
-77.5
30
0
40
3.3999999999999986
210
0
220
0
230
1
100
AcDbArc
50
270
51
334.75621759117189
0
LINE
5
169
100
AcDbEntity
8
0
100
AcDbLine
10
185.07530486293638
20
-78.950000000000003
30
0
11
199.95000000000002
21
-78.950000000000003
31
0
0
LINE
5
170
100
AcDbEntity
8
0
100
AcDbLine
10
199.95000000000002
20
-78.950000000000003
30
0
11
199.95000000000002
21
-73.950000000000003
31
0
0
LINE
5
171
100
AcDbEntity
8
0
100
AcDbLine
10
199.95000000000002
20
-73.950000000000003
30
0
11
216.05000000000001
21
-73.950000000000003
31
0
0
LINE
5
172
100
AcDbEntity
8
0
100
AcDbLine
10
216.05000000000001
20
-115.71998436808941
30
0
11
216.05000000000001
21
-73.950000000000003
31
0
0
LINE
5
173
100
AcDbEntity
8
0
100
AcDbLine
10
261.60799640000005
20
-85.09314040000001
30
0
11
261.74829099999999
21
-85.130732100000017
31
0
0
LINE
5
174
100
AcDbEntity
8
0
100
AcDbLine
10
257.5
20
-82.591793165629852
30
0
11
257.5
21
-65.335333700000007
31
0
0
LINE
5
175
100
AcDbEntity
8
0
100
AcDbLine
10
257.5
20
-82.591793165629852
30
0
11
261.98712586737963
21
-83.382994584531161
31
0
0
LINE
5
176
100
AcDbEntity
8
0
100
AcDbLine
10
261.98712586737963
20
-83.382994584531161
30
0
11
262.27502679869974
21
-83.460137150530912
31
0
0
LINE
5
177
100
AcDbEntity
8
0
100
AcDbLine
10
262.27502679869974
20
-83.460137150530912
30
0
11
284.0587146890623
21
-91.388751039720248
31
0
0
LINE
5
178
100
AcDbEntity
8
0
100
AcDbLine
10
258.39357680000001
20
-80.828248600000009
30
0
11
260.72594202849405
21
-83.160613828494007
31
0
0
ENDSEC
0
SECTION
2
OBJECTS
0
DICTIONARY
5
C
100
AcDbDictionary
3
ACAD_GROUP
350
D
3
ACAD_MLINESTYLE
350
17
0
DICTIONARY
5
D
100
AcDbDictionary
0
DICTIONARY
5
1A
330
C
100
AcDbDictionary
0
DICTIONARY
5
17
100
AcDbDictionary
0
ENDSEC
0
EOF
