0
SECTION
2
HEADER
9
$INSUNITS
70
4
9
$ACADVER
1
AC1014
9
$HANDSEED
5
FFFF
0
ENDSEC
0
SECTION
2
TABLES
0
TABLE
2
VPORT
5
8
100
AcDbSymbolTable
0
ENDTAB
0
TABLE
2
LTYPE
5
5
100
AcDbSymbolTable
0
LTYPE
5
14
100
AcDbSymbolTableRecord
100
AcDbLinetypeTableRecord
2
BYBLOCK
70
0
0
LTYPE
5
15
100
AcDbSymbolTableRecord
100
AcDbLinetypeTableRecord
2
BYLAYER
70
0
0
LTYPE
5
16
100
AcDbSymbolTableRecord
100
AcDbLinetypeTableRecord
2
DASHED
70
0
3
Dashed __ __ __ __ __ __ __ __ __ __ __ __ __ _
72
65
73
2
40
0.75
49
0.5
74
0
49
-0.25
74
0
0
ENDTAB
0
TABLE
2
LAYER
5
2
100
AcDbSymbolTable
70
3
0
LAYER
5
50
100
AcDbSymbolTableRecord
100
AcDbLayerTableRecord
2
1
70
0
62
7
6
DASHED
0
LAYER
5
51
100
AcDbSymbolTableRecord
100
AcDbLayerTableRecord
2
0
70
0
62
7
6
CONTINUOUS
0
ENDTAB
0
TABLE
2
STYLE
5
3
100
AcDbSymbolTable
70
1
0
STYLE
5
11
100
AcDbSymbolTableRecord
100
AcDbTextStyleTableRecord
2
STANDARD
70
0
0
ENDTAB
0
TABLE
2
VIEW
5
6
100
AcDbSymbolTable
70
0
0
ENDTAB
0
TABLE
2
UCS
5
7
100
AcDbSymbolTable
70
0
0
ENDTAB
0
TABLE
2
APPID
5
9
100
AcDbSymbolTable
70
2
0
APPID
5
12
100
AcDbSymbolTableRecord
100
AcDbRegAppTableRecord
2
ACAD
70
0
0
ENDTAB
0
TABLE
2
DIMSTYLE
5
A
100
AcDbSymbolTable
70
1
0
ENDTAB
0
TABLE
2
BLOCK_RECORD
5
1
100
AcDbSymbolTable
70
1
0
BLOCK_RECORD
5
1F
100
AcDbSymbolTableRecord
100
AcDbBlockTableRecord
2
*MODEL_SPACE
0
BLOCK_RECORD
5
1B
100
AcDbSymbolTableRecord
100
AcDbBlockTableRecord
2
*PAPER_SPACE
0
ENDTAB
0
ENDSEC
0
SECTION
2
BLOCKS
0
BLOCK
5
20
100
AcDbEntity
100
AcDbBlockBegin
2
*MODEL_SPACE
0
ENDBLK
5
21
100
AcDbEntity
100
AcDbBlockEnd
0
BLOCK
5
1C
100
AcDbEntity
100
AcDbBlockBegin
2
*PAPER_SPACE
0
ENDBLK
5
1D
100
AcDbEntity
100
AcDbBlockEnd
0
ENDSEC
0
SECTION
2
ENTITIES
0
LWPOLYLINE
5
100
100
AcDbEntity
8
0
100
AcDbPolyline
90
10
70
1
43
0.0
10
-131.5
20
-112.72000030000001
10
-13.705213500000006
20
-112.7199684
10
-6.0652287999999999
20
-91.729283000000024
10
-32.5
20
-65.335333700000007
10
-32.5
20
-21.173984399999995
10
-72.311152599999971
20
-13.517993599999997
10
-72.40471909999998
20
-13.5
10
-91.62310559999996
20
-13.5
10
-111.89826940000002
20
-18.568790899999996
10
-131.5
20
-30.948831299999995
0
LWPOLYLINE
5
101
100
AcDbEntity
8
0
100
AcDbPolyline
90
9
70
1
43
0.0
10
-134.5
20
-115.72000109999999
10
-11.604590699999981
20
-115.71996780000001
10
-2.591920899999991
20
-90.957861100000002
10
-29.499999999999993
20
-64.091334799999998
10
-29.499999999999993
20
-18.695937799999996
10
-72.118876299999997
20
-10.500000000000004
10
-91.992422499999989
20
-10.500000000000004
10
-113.09307769999998
20
-15.775163799999996
10
-134.5
20
-29.295325299999995
0
LWPOLYLINE
5
102
100
AcDbEntity
8
0
100
AcDbPolyline
90
9
70
1
43
0.0
10
-132.69999999999999
20
-113.92000060000001
10
-12.864964299999997
20
-113.91996820000001
10
-4.6759055999999788
20
-91.420714200000006
10
-31.29999999999999
20
-64.8377342
10
-31.29999999999999
20
-20.182765800000002
10
-72.29038199999998
20
-12.300000000000001
10
-91.770832399999989
20
-12.300000000000001
10
-112.37619270000002
20
-17.451340100000007
10
-132.69999999999999
20
-30.287428900000002
0
LWPOLYLINE
5
103
100
AcDbEntity
8
0
100
AcDbPolyline
90
10
70
1
43
0.0
10
-133.30000000000001
20
-114.52000080000003
10
-12.444839799999983
20
-114.5199681
10
-3.9812440000000038
20
-91.266429900000006
10
-30.699999999999967
20
-64.588934399999999
10
-30.699999999999967
20
-19.687156399999999
10
-71.97122730000001
20
-11.750381900000001
10
-72.233213399999997
20
-11.699999999999999
10
-91.844695799999982
20
-11.699999999999999
10
-112.61515439999998
20
-16.892614700000003
10
-133.30000000000001
20
-29.956727700000005
0
CIRCLE
5
104
100
AcDbEntity
8
0
100
AcDbCircle
10
-107.99999999999999
20
-39.5
30
0
40
2.2000000000000002
210
0
220
0
230
1
0
CIRCLE
5
105
100
AcDbEntity
8
0
100
AcDbCircle
10
-55.999999999999979
20
-39.5
30
0
40
2.2000000000000002
210
0
220
0
230
1
0
CIRCLE
5
106
100
AcDbEntity
8
0
100
AcDbCircle
10
-39.864413899999995
20
-83.324101500000012
30
0
40
2.2000000000000002
210
0
220
0
230
1
0
LWPOLYLINE
5
107
100
AcDbEntity
8
0
100
AcDbPolyline
90
4
70
1
43
0.0
10
-129.5
20
-109.61000000000001
10
-96.499999999999986
20
-109.61000000000001
10
-96.499999999999986
20
-91.610000000000014
10
-129.5
20
-91.610000000000014
0
LINE
5
108
100
AcDbEntity
8
0
100
AcDbLine
10
-92.974999999999994
20
-106.98999999999999
30
0
11
-92.974999999999994
21
-112.84
31
0
0
LINE
5
109
100
AcDbEntity
8
0
100
AcDbLine
10
-84.175000000000011
20
-112.84
30
0
11
-84.175000000000011
21
-106.98999999999999
31
0
0
LINE
5
110
100
AcDbEntity
8
0
100
AcDbLine
10
-84.175000000000011
20
-106.98999999999999
30
0
11
-92.974999999999994
21
-106.98999999999999
31
0
0
LWPOLYLINE
5
111
100
AcDbEntity
8
0
100
AcDbPolyline
90
4
70
1
43
0.0
10
-82.175000000000011
20
-111.47500000000001
10
-73.175000000000011
20
-111.47500000000001
10
-73.175000000000011
20
-107.97499999999999
10
-82.175000000000011
20
-107.97499999999999
0
LINE
5
112
100
AcDbEntity
8
0
100
AcDbLine
10
-17.393576799999977
20
-82.171751400000019
30
0
11
-25.171751399999991
21
-74.393576799999991
31
0
0
LINE
5
113
100
AcDbEntity
8
0
100
AcDbLine
10
-25.171751399999991
20
-74.393576799999991
30
0
11
-31.606423199999973
21
-80.828248600000009
31
0
0
LINE
5
114
100
AcDbEntity
8
0
100
AcDbLine
10
-21.004104509497388
20
-85.782279109497424
30
0
11
-17.393576799999977
21
-82.171751400000019
31
0
0
LINE
5
115
100
AcDbEntity
8
0
100
AcDbLine
10
-96.799999999999997
20
-88.450000000000003
30
0
11
-96.799999999999997
21
-79.549999999999997
31
0
0
LINE
5
116
100
AcDbEntity
8
0
100
AcDbLine
10
-96.799999999999997
20
-79.549999999999997
30
0
11
-105.28752880199622
21
-79.549999999999997
31
0
0
LINE
5
117
100
AcDbEntity
8
0
100
AcDbLine
10
-105.39999999999999
20
-79.690890230020671
30
0
11
-105.39999999999999
21
-88.450000000000003
31
0
0
LINE
5
118
100
AcDbEntity
8
0
100
AcDbLine
10
-105.39999999999999
20
-88.450000000000003
30
0
11
-96.799999999999997
21
-88.450000000000003
31
0
0
LWPOLYLINE
5
119
100
AcDbEntity
8
0
100
AcDbPolyline
90
4
70
1
43
0.0
10
-127
20
-87.000000000000014
10
-112.99999999999999
20
-87.000000000000014
10
-112.99999999999999
20
-73
10
-127
20
-73
0
LWPOLYLINE
5
120
100
AcDbEntity
8
0
100
AcDbPolyline
90
4
70
1
43
0.0
10
-127
20
-68
10
-112.99999999999999
20
-68
10
-112.99999999999999
20
-54
10
-127
20
-54
0
LWPOLYLINE
5
121
100
AcDbEntity
8
0
100
AcDbPolyline
90
4
70
1
43
0.0
10
-127
20
-49
10
-112.99999999999999
20
-49
10
-112.99999999999999
20
-35
10
-127
20
-35
0
LWPOLYLINE
5
122
100
AcDbEntity
8
0
100
AcDbPolyline
90
4
70
1
43
0.0
10
-107.99999999999999
20
-75
10
-93.999999999999986
20
-75
10
-93.999999999999986
20
-61
10
-107.99999999999999
20
-61
0
LWPOLYLINE
5
123
100
AcDbEntity
8
0
100
AcDbPolyline
90
4
70
1
43
0.0
10
-107.99999999999999
20
-56.000000000000007
10
-93.999999999999986
20
-56.000000000000007
10
-93.999999999999986
20
-42
10
-107.99999999999999
20
-42
0
LWPOLYLINE
5
124
100
AcDbEntity
8
0
100
AcDbPolyline
90
4
70
1
43
0.0
10
-107.99999999999999
20
-37
10
-93.999999999999986
20
-37
10
-93.999999999999986
20
-23
10
-107.99999999999999
20
-23
0
LWPOLYLINE
5
125
100
AcDbEntity
8
0
100
AcDbPolyline
90
4
70
1
43
0.0
10
-88.999999999999986
20
-70
10
-75
20
-70
10
-75
20
-56.000000000000007
10
-88.999999999999986
20
-56.000000000000007
0
LWPOLYLINE
5
126
100
AcDbEntity
8
0
100
AcDbPolyline
90
4
70
1
43
0.0
10
-88.999999999999986
20
-51.000000000000007
10
-75
20
-51.000000000000007
10
-75
20
-37
10
-88.999999999999986
20
-37
0
LWPOLYLINE
5
127
100
AcDbEntity
8
0
100
AcDbPolyline
90
4
70
1
43
0.0
10
-88.999999999999986
20
-32
10
-75
20
-32
10
-75
20
-18.000000000000004
10
-88.999999999999986
20
-18.000000000000004
0
LWPOLYLINE
5
128
100
AcDbEntity
8
0
100
AcDbPolyline
90
4
70
1
43
0.0
10
-70
20
-75
10
-55.999999999999979
20
-75
10
-55.999999999999979
20
-61
10
-70
20
-61
0
LWPOLYLINE
5
129
100
AcDbEntity
8
0
100
AcDbPolyline
90
4
70
1
43
0.0
10
-70
20
-56.000000000000007
10
-55.999999999999979
20
-56.000000000000007
10
-55.999999999999979
20
-42
10
-70
20
-42
0
LWPOLYLINE
5
130
100
AcDbEntity
8
0
100
AcDbPolyline
90
4
70
1
43
0.0
10
-70
20
-37
10
-55.999999999999979
20
-37
10
-55.999999999999979
20
-23
10
-70
20
-23
0
LWPOLYLINE
5
131
100
AcDbEntity
8
0
100
AcDbPolyline
90
4
70
1
43
0.0
10
-50.999999999999979
20
-77.5
10
-36.999999999999993
20
-77.5
10
-36.999999999999993
20
-63.5
10
-50.999999999999979
20
-63.5
0
LWPOLYLINE
5
132
100
AcDbEntity
8
0
100
AcDbPolyline
90
4
70
1
43
0.0
10
-50.999999999999979
20
-58.500000000000007
10
-36.999999999999993
20
-58.500000000000007
10
-36.999999999999993
20
-44.5
10
-50.999999999999979
20
-44.5
0
LWPOLYLINE
5
133
100
AcDbEntity
8
0
100
AcDbPolyline
90
4
70
1
43
0.0
10
-50.999999999999979
20
-39.5
10
-36.999999999999993
20
-39.5
10
-36.999999999999993
20
-25.5
10
-50.999999999999979
20
-25.5
0
LWPOLYLINE
5
134
100
AcDbEntity
8
0
100
AcDbPolyline
90
4
70
1
43
0.0
10
-59.799452500000001
20
-97.634112299999998
10
-45.852726699999984
20
-98.85429270000003
10
-44.632546300000016
20
-84.907566900000006
10
-58.579272099999997
20
-83.687386500000002
0
LWPOLYLINE
5
135
100
AcDbEntity
8
0
100
AcDbPolyline
90
4
70
1
43
0.0
10
-39.548878699999968
20
-99.965831199999997
10
-26.025917099999987
20
-103.58929779999998
10
-22.402450499999986
20
-90.066336200000009
10
-35.925412100000003
20
-86.442869600000009
0
LINE
5
136
100
AcDbEntity
8
0
100
AcDbLine
10
-131.5
20
-89.750000000000014
30
0
11
-110.24999999999999
21
-89.750000000000014
31
0
0
LINE
5
137
100
AcDbEntity
8
0
100
AcDbLine
10
-110.24999999999999
20
-89.750000000000014
30
0
11
-110.24999999999999
21
-79.700000000000003
31
0
0
LINE
5
138
100
AcDbEntity
8
0
100
AcDbLine
10
-129.75
20
-89.750000000000014
30
0
11
-129.75
21
-32.250000000000007
31
0
0
LINE
5
139
100
AcDbEntity
8
0
100
AcDbLine
10
-110.75
20
-32.250000000000007
30
0
11
-129.75
21
-32.250000000000007
31
0
0
LINE
5
140
100
AcDbEntity
8
0
100
AcDbLine
10
-91.25
20
-77.75
30
0
11
-91.25
21
-72.75
31
0
0
LINE
5
141
100
AcDbEntity
8
0
100
AcDbLine
10
-91.749999999999986
20
-20.250000000000004
30
0
11
-110.75
21
-20.250000000000004
31
0
0
LINE
5
142
100
AcDbEntity
8
0
100
AcDbLine
10
-110.75
20
-20.250000000000004
30
0
11
-110.75
21
-32.250000000000007
31
0
0
LINE
5
143
100
AcDbEntity
8
0
100
AcDbLine
10
-91.25
20
-72.75
30
0
11
-72.749999999999986
21
-72.75
31
0
0
LINE
5
144
100
AcDbEntity
8
0
100
AcDbLine
10
-72.25
20
-20.250000000000004
30
0
11
-72.25
21
-15.250000000000004
31
0
0
LINE
5
145
100
AcDbEntity
8
0
100
AcDbLine
10
-72.25
20
-15.250000000000004
30
0
11
-91.749999999999986
21
-15.250000000000004
31
0
0
LINE
5
146
100
AcDbEntity
8
0
100
AcDbLine
10
-91.749999999999986
20
-15.250000000000004
30
0
11
-91.749999999999986
21
-20.250000000000004
31
0
0
LINE
5
147
100
AcDbEntity
8
0
100
AcDbLine
10
-72.749999999999986
20
-77.75
30
0
11
-60.820322599999983
21
-77.75
31
0
0
LINE
5
148
100
AcDbEntity
8
0
100
AcDbLine
10
-72.749999999999986
20
-72.75
30
0
11
-72.749999999999986
21
-77.75
31
0
0
LINE
5
149
100
AcDbEntity
8
0
100
AcDbLine
10
-53.249999999999993
20
-22.750000000000004
30
0
11
-53.249999999999993
21
-20.250000000000004
31
0
0
LINE
5
150
100
AcDbEntity
8
0
100
AcDbLine
10
-53.249999999999993
20
-20.250000000000004
30
0
11
-72.25
21
-20.250000000000004
31
0
0
LINE
5
151
100
AcDbEntity
8
0
100
AcDbLine
10
-34.250000000000007
20
-65.335333700000007
30
0
11
-34.250000000000007
21
-22.750000000000004
31
0
0
LINE
5
152
100
AcDbEntity
8
0
100
AcDbLine
10
-34.250000000000007
20
-22.750000000000004
30
0
11
-53.249999999999993
21
-22.750000000000004
31
0
0
LINE
5
153
100
AcDbEntity
8
0
100
AcDbLine
10
-62.778666199999975
20
-100.13396940000001
30
0
11
-43.131535599999964
21
-101.8528706
31
0
0
LINE
5
154
100
AcDbEntity
8
0
100
AcDbLine
10
-64.14226563802815
20
-115.71998203571951
30
0
11
-60.820322599999983
21
-77.75
31
0
0
LINE
5
155
100
AcDbEntity
8
0
100
AcDbLine
10
-43.131535599999964
20
-101.8528706
30
0
11
-24.081373500000005
21
-106.95734620000002
31
0
0
LINE
5
156
100
AcDbEntity
8
0
100
AcDbLine
10
-26.429311968747307
20
-115.71997181693783
30
0
11
-19.034402099999994
21
-88.121792600000006
31
0
0
LINE
5
157
100
AcDbEntity
8
0
100
AcDbLine
10
-34.250000000000007
20
-84.044785400000009
30
0
11
-6.2464877646559946
21
-91.548303944531568
31
0
0
LINE
5
158
100
AcDbEntity
8
0
100
AcDbLine
10
-32.5
20
-65.335333700000007
30
0
11
-34.250000000000007
21
-65.335333700000007
31
0
0
LINE
5
159
100
AcDbEntity
8
0
100
AcDbLine
10
-34.250000000000007
20
-84.044785400000009
30
0
11
-34.250000000000007
21
-65.335333700000007
31
0
0
ARC
5
160
100
AcDbEntity
8
0
100
AcDbCircle
10
-107.99999999999999
20
-77.5
30
0
40
2.2000000000000064
210
0
220
0
230
1
100
AcDbArc
50
270
51
353.47502115585615
0
LINE
5
161
100
AcDbEntity
8
0
100
AcDbLine
10
-105.81425070056055
20
-77.75
30
0
11
-91.25
21
-77.75
31
0
0
LINE
5
162
100
AcDbEntity
8
0
100
AcDbLine
10
-107.99999999999999
20
-79.700000000000003
30
0
11
-110.24999999999999
21
-79.700000000000003
31
0
0
LINE
5
163
100
AcDbEntity
8
0
100
AcDbLine
10
-32.500000000000007
20
-82.701963173623056
30
0
11
-32.500000000000007
21
-65.335333700000007
31
0
0
LINE
5
164
100
AcDbEntity
8
0
100
AcDbLine
10
-32.500000000000007
20
-82.701963173623056
30
0
11
-8.7265932520378229
21
-89.072028360477802
31
0
0
LINE
5
165
100
AcDbEntity
8
0
100
AcDbLine
10
-31.606423199999973
20
-80.828248600000009
30
0
11
-28.71980967366121
21
-83.714862126338772
31
0
0
LINE
5
166
100
AcDbEntity
8
0
100
AcDbLine
10
-131.5
20
-90.950000000000003
30
0
11
-109.05
21
-90.950000000000003
31
0
0
LINE
5
167
100
AcDbEntity
8
0
100
AcDbLine
10
-109.05
20
-90.950000000000003
30
0
11
-109.05
21
-80.900000000000006
31
0
0
LINE
5
168
100
AcDbEntity
8
0
100
AcDbLine
10
-107.99999999999999
20
-80.900000000000006
30
0
11
-109.05
21
-80.900000000000006
31
0
0
ARC
5
169
100
AcDbEntity
8
0
100
AcDbCircle
10
-107.99999999999999
20
-77.5
30
0
40
3.3999999999999986
210
0
220
0
230
1
100
AcDbArc
50
270
51
334.75621759117206
0
LINE
5
170
100
AcDbEntity
8
0
100
AcDbLine
10
-104.92469513706362
20
-78.950000000000003
30
0
11
-90.050000000000011
21
-78.950000000000003
31
0
0
LINE
5
171
100
AcDbEntity
8
0
100
AcDbLine
10
-90.050000000000011
20
-78.950000000000003
30
0
11
-90.050000000000011
21
-73.950000000000003
31
0
0
LINE
5
172
100
AcDbEntity
8
0
100
AcDbLine
10
-90.050000000000011
20
-73.950000000000003
30
0
11
-73.949999999999989
21
-73.950000000000003
31
0
0
LINE
5
173
100
AcDbEntity
8
0
100
AcDbLine
10
-73.949999999999989
20
-73.950000000000003
30
0
11
-73.949999999999989
21
-78.950000000000003
31
0
0
LINE
5
174
100
AcDbEntity
8
0
100
AcDbLine
10
-73.949999999999989
20
-78.950000000000003
30
0
11
-62.12989280319411
21
-78.950000000000003
31
0
0
LINE
5
175
100
AcDbEntity
8
0
100
AcDbLine
10
-65.346849471789369
20
-115.7199823621161
30
0
11
-62.12989280319411
21
-78.950000000000003
31
0
0
ENDSEC
0
SECTION
2
OBJECTS
0
DICTIONARY
5
C
100
AcDbDictionary
3
ACAD_GROUP
350
D
3
ACAD_MLINESTYLE
350
17
0
DICTIONARY
5
D
100
AcDbDictionary
0
DICTIONARY
5
1A
330
C
100
AcDbDictionary
0
DICTIONARY
5
17
100
AcDbDictionary
0
ENDSEC
0
EOF
