0
SECTION
2
HEADER
9
$INSUNITS
70
4
9
$ACADVER
1
AC1014
9
$HANDSEED
5
FFFF
0
ENDSEC
0
SECTION
2
TABLES
0
TABLE
2
VPORT
5
8
100
AcDbSymbolTable
0
ENDTAB
0
TABLE
2
LTYPE
5
5
100
AcDbSymbolTable
0
LTYPE
5
14
100
AcDbSymbolTableRecord
100
AcDbLinetypeTableRecord
2
BYBLOCK
70
0
0
LTYPE
5
15
100
AcDbSymbolTableRecord
100
AcDbLinetypeTableRecord
2
BYLAYER
70
0
0
LTYPE
5
16
100
AcDbSymbolTableRecord
100
AcDbLinetypeTableRecord
2
DASHED
70
0
3
Dashed __ __ __ __ __ __ __ __ __ __ __ __ __ _
72
65
73
2
40
0.75
49
0.5
74
0
49
-0.25
74
0
0
ENDTAB
0
TABLE
2
LAYER
5
2
100
AcDbSymbolTable
70
3
0
LAYER
5
50
100
AcDbSymbolTableRecord
100
AcDbLayerTableRecord
2
1
70
0
62
7
6
DASHED
0
LAYER
5
51
100
AcDbSymbolTableRecord
100
AcDbLayerTableRecord
2
0
70
0
62
7
6
CONTINUOUS
0
ENDTAB
0
TABLE
2
STYLE
5
3
100
AcDbSymbolTable
70
1
0
STYLE
5
11
100
AcDbSymbolTableRecord
100
AcDbTextStyleTableRecord
2
STANDARD
70
0
0
ENDTAB
0
TABLE
2
VIEW
5
6
100
AcDbSymbolTable
70
0
0
ENDTAB
0
TABLE
2
UCS
5
7
100
AcDbSymbolTable
70
0
0
ENDTAB
0
TABLE
2
APPID
5
9
100
AcDbSymbolTable
70
2
0
APPID
5
12
100
AcDbSymbolTableRecord
100
AcDbRegAppTableRecord
2
ACAD
70
0
0
ENDTAB
0
TABLE
2
DIMSTYLE
5
A
100
AcDbSymbolTable
70
1
0
ENDTAB
0
TABLE
2
BLOCK_RECORD
5
1
100
AcDbSymbolTable
70
1
0
BLOCK_RECORD
5
1F
100
AcDbSymbolTableRecord
100
AcDbBlockTableRecord
2
*MODEL_SPACE
0
BLOCK_RECORD
5
1B
100
AcDbSymbolTableRecord
100
AcDbBlockTableRecord
2
*PAPER_SPACE
0
ENDTAB
0
ENDSEC
0
SECTION
2
BLOCKS
0
BLOCK
5
20
100
AcDbEntity
100
AcDbBlockBegin
2
*MODEL_SPACE
0
ENDBLK
5
21
100
AcDbEntity
100
AcDbBlockEnd
0
BLOCK
5
1C
100
AcDbEntity
100
AcDbBlockBegin
2
*PAPER_SPACE
0
ENDBLK
5
1D
100
AcDbEntity
100
AcDbBlockEnd
0
ENDSEC
0
SECTION
2
ENTITIES
0
LWPOLYLINE
5
100
100
AcDbEntity
8
0
100
AcDbPolyline
90
10
70
1
43
0.0
10
8.4999999999999964
20
-112.72000030000001
10
126.29478649999999
20
-112.7199684
10
133.9347712
20
-91.729283000000024
10
107.5
20
-65.335333700000007
10
107.5
20
-21.173984399999995
10
67.688847400000029
20
-13.517993599999997
10
67.59528090000002
20
-13.5
10
48.37689440000004
20
-13.5
10
28.101730599999986
20
-18.568790899999996
10
8.4999999999999964
20
-30.948831299999995
0
LWPOLYLINE
5
101
100
AcDbEntity
8
0
100
AcDbPolyline
90
9
70
1
43
0.0
10
5.5000000000000071
20
-115.72000109999999
10
128.39540930000001
20
-115.71996780000001
10
137.40807910000001
20
-90.957861100000002
10
110.5
20
-64.091334799999998
10
110.5
20
-18.695937799999996
10
67.881123700000003
20
-10.500000000000004
10
48.007577500000011
20
-10.500000000000004
10
26.906922300000016
20
-15.775163799999996
10
5.5000000000000071
20
-29.295325299999995
0
LWPOLYLINE
5
102
100
AcDbEntity
8
0
100
AcDbPolyline
90
9
70
1
43
0.0
10
7.3000000000000043
20
-113.92000060000001
10
127.1350357
20
-113.91996820000001
10
135.32409440000004
20
-91.420714200000006
10
108.70000000000002
20
-64.8377342
10
108.70000000000002
20
-20.182765800000002
10
67.70961800000002
20
-12.300000000000001
10
48.229167600000018
20
-12.300000000000001
10
27.623807299999985
20
-17.451340100000007
10
7.3000000000000043
20
-30.287428900000002
0
LWPOLYLINE
5
103
100
AcDbEntity
8
0
100
AcDbPolyline
90
10
70
1
43
0.0
10
6.6999999999999993
20
-114.52000080000003
10
127.55516020000002
20
-114.5199681
10
136.018756
20
-91.266429900000006
10
109.30000000000004
20
-64.588934399999999
10
109.30000000000004
20
-19.687156399999999
10
68.02877269999999
20
-11.750381900000001
10
67.766786600000003
20
-11.699999999999999
10
48.155304200000018
20
-11.699999999999999
10
27.384845600000016
20
-16.892614700000003
10
6.6999999999999993
20
-29.956727700000005
0
CIRCLE
5
104
100
AcDbEntity
8
0
100
AcDbCircle
10
32.000000000000014
20
-39.5
30
0
40
2.2000000000000002
210
0
220
0
230
1
0
CIRCLE
5
105
100
AcDbEntity
8
0
100
AcDbCircle
10
84.000000000000028
20
-39.5
30
0
40
2.2000000000000002
210
0
220
0
230
1
0
CIRCLE
5
106
100
AcDbEntity
8
0
100
AcDbCircle
10
100.13558610000001
20
-83.324101500000012
30
0
40
2.2000000000000002
210
0
220
0
230
1
0
LWPOLYLINE
5
107
100
AcDbEntity
8
0
100
AcDbPolyline
90
4
70
1
43
0.0
10
10.500000000000007
20
-109.61000000000001
10
43.500000000000014
20
-109.61000000000001
10
43.500000000000014
20
-91.610000000000014
10
10.500000000000007
20
-91.610000000000014
0
LINE
5
108
100
AcDbEntity
8
0
100
AcDbLine
10
47.025000000000006
20
-106.98999999999999
30
0
11
47.025000000000006
21
-112.84
31
0
0
LINE
5
109
100
AcDbEntity
8
0
100
AcDbLine
10
55.824999999999996
20
-112.84
30
0
11
55.824999999999996
21
-106.98999999999999
31
0
0
LINE
5
110
100
AcDbEntity
8
0
100
AcDbLine
10
55.824999999999996
20
-106.98999999999999
30
0
11
47.025000000000006
21
-106.98999999999999
31
0
0
LWPOLYLINE
5
111
100
AcDbEntity
8
0
100
AcDbPolyline
90
4
70
1
43
0.0
10
57.824999999999989
20
-111.47500000000001
10
66.824999999999989
20
-111.47500000000001
10
66.824999999999989
20
-107.97499999999999
10
57.824999999999989
20
-107.97499999999999
0
LINE
5
112
100
AcDbEntity
8
0
100
AcDbLine
10
122.60642320000002
20
-82.171751400000019
30
0
11
114.82824860000001
21
-74.393576799999991
31
0
0
LINE
5
113
100
AcDbEntity
8
0
100
AcDbLine
10
114.82824860000001
20
-74.393576799999991
30
0
11
108.39357680000003
21
-80.828248600000009
31
0
0
LINE
5
114
100
AcDbEntity
8
0
100
AcDbLine
10
108.39357680000003
20
-80.828248600000009
30
0
11
110.75850545920048
21
-83.193177259200453
31
0
0
LINE
5
115
100
AcDbEntity
8
0
100
AcDbLine
10
118.90494470499786
20
-85.873229895002169
30
0
11
122.60642320000002
21
-82.171751400000019
31
0
0
LINE
5
116
100
AcDbEntity
8
0
100
AcDbLine
10
43.200000000000003
20
-88.450000000000003
30
0
11
43.200000000000003
21
-79.549999999999997
31
0
0
LINE
5
117
100
AcDbEntity
8
0
100
AcDbLine
10
43.200000000000003
20
-79.549999999999997
30
0
11
34.712471198003769
21
-79.549999999999997
31
0
0
LINE
5
118
100
AcDbEntity
8
0
100
AcDbLine
10
34.600000000000009
20
-79.690890230020656
30
0
11
34.600000000000009
21
-88.450000000000003
31
0
0
LINE
5
119
100
AcDbEntity
8
0
100
AcDbLine
10
34.600000000000009
20
-88.450000000000003
30
0
11
43.200000000000003
21
-88.450000000000003
31
0
0
LWPOLYLINE
5
120
100
AcDbEntity
8
0
100
AcDbPolyline
90
4
70
1
43
0.0
10
13.000000000000007
20
-87.000000000000014
10
27.000000000000011
20
-87.000000000000014
10
27.000000000000011
20
-73
10
13.000000000000007
20
-73
0
LWPOLYLINE
5
121
100
AcDbEntity
8
0
100
AcDbPolyline
90
4
70
1
43
0.0
10
13.000000000000007
20
-68
10
27.000000000000011
20
-68
10
27.000000000000011
20
-54
10
13.000000000000007
20
-54
0
LWPOLYLINE
5
122
100
AcDbEntity
8
0
100
AcDbPolyline
90
4
70
1
43
0.0
10
13.000000000000007
20
-49
10
27.000000000000011
20
-49
10
27.000000000000011
20
-35
10
13.000000000000007
20
-35
0
LWPOLYLINE
5
123
100
AcDbEntity
8
0
100
AcDbPolyline
90
4
70
1
43
0.0
10
32.000000000000014
20
-75
10
46.000000000000014
20
-75
10
46.000000000000014
20
-61
10
32.000000000000014
20
-61
0
LWPOLYLINE
5
124
100
AcDbEntity
8
0
100
AcDbPolyline
90
4
70
1
43
0.0
10
32.000000000000014
20
-56.000000000000007
10
46.000000000000014
20
-56.000000000000007
10
46.000000000000014
20
-42
10
32.000000000000014
20
-42
0
LWPOLYLINE
5
125
100
AcDbEntity
8
0
100
AcDbPolyline
90
4
70
1
43
0.0
10
32.000000000000014
20
-37
10
46.000000000000014
20
-37
10
46.000000000000014
20
-23
10
32.000000000000014
20
-23
0
LWPOLYLINE
5
126
100
AcDbEntity
8
0
100
AcDbPolyline
90
4
70
1
43
0.0
10
51.000000000000014
20
-70
10
65
20
-70
10
65
20
-56.000000000000007
10
51.000000000000014
20
-56.000000000000007
0
LWPOLYLINE
5
127
100
AcDbEntity
8
0
100
AcDbPolyline
90
4
70
1
43
0.0
10
51.000000000000014
20
-51.000000000000007
10
65
20
-51.000000000000007
10
65
20
-37
10
51.000000000000014
20
-37
0
LWPOLYLINE
5
128
100
AcDbEntity
8
0
100
AcDbPolyline
90
4
70
1
43
0.0
10
51.000000000000014
20
-32
10
65
20
-32
10
65
20
-18.000000000000004
10
51.000000000000014
20
-18.000000000000004
0
LWPOLYLINE
5
129
100
AcDbEntity
8
0
100
AcDbPolyline
90
4
70
1
43
0.0
10
70
20
-75
10
84.000000000000028
20
-75
10
84.000000000000028
20
-61
10
70
20
-61
0
LWPOLYLINE
5
130
100
AcDbEntity
8
0
100
AcDbPolyline
90
4
70
1
43
0.0
10
70
20
-56.000000000000007
10
84.000000000000028
20
-56.000000000000007
10
84.000000000000028
20
-42
10
70
20
-42
0
LWPOLYLINE
5
131
100
AcDbEntity
8
0
100
AcDbPolyline
90
4
70
1
43
0.0
10
70
20
-37
10
84.000000000000028
20
-37
10
84.000000000000028
20
-23
10
70
20
-23
0
LWPOLYLINE
5
132
100
AcDbEntity
8
0
100
AcDbPolyline
90
4
70
1
43
0.0
10
89.000000000000028
20
-77.5
10
103
20
-77.5
10
103
20
-63.5
10
89.000000000000028
20
-63.5
0
LWPOLYLINE
5
133
100
AcDbEntity
8
0
100
AcDbPolyline
90
4
70
1
43
0.0
10
89.000000000000028
20
-58.500000000000007
10
103
20
-58.500000000000007
10
103
20
-44.5
10
89.000000000000028
20
-44.5
0
LWPOLYLINE
5
134
100
AcDbEntity
8
0
100
AcDbPolyline
90
4
70
1
43
0.0
10
89.000000000000028
20
-39.5
10
103
20
-39.5
10
103
20
-25.5
10
89.000000000000028
20
-25.5
0
LWPOLYLINE
5
135
100
AcDbEntity
8
0
100
AcDbPolyline
90
4
70
1
43
0.0
10
70
20
-97.800000000000011
10
84.000000000000028
20
-97.800000000000011
10
84.000000000000028
20
-83.800000000000011
10
70
20
-83.800000000000011
0
LWPOLYLINE
5
136
100
AcDbEntity
8
0
100
AcDbPolyline
90
4
70
1
43
0.0
10
90.376736900000026
20
-98.357892200000023
10
104.16404540000002
20
-100.78896670000003
10
106.59511990000001
20
-87.001658200000008
10
92.80781140000002
20
-84.5705837
0
LWPOLYLINE
5
137
100
AcDbEntity
8
0
100
AcDbPolyline
90
4
70
1
43
0.0
10
110.34702859999999
20
-102.4456919
10
123.50272520000001
20
-107.23397390000002
10
128.2910072
20
-94.078277300000011
10
115.13531060000003
20
-89.289995300000001
0
LINE
5
138
100
AcDbEntity
8
0
100
AcDbLine
10
8.4999999999999964
20
-89.750000000000014
30
0
11
29.750000000000014
21
-89.750000000000014
31
0
0
LINE
5
139
100
AcDbEntity
8
0
100
AcDbLine
10
29.750000000000014
20
-89.750000000000014
30
0
11
29.750000000000014
21
-79.700000000000003
31
0
0
LINE
5
140
100
AcDbEntity
8
0
100
AcDbLine
10
10.250000000000004
20
-89.750000000000014
30
0
11
10.250000000000004
21
-32.250000000000007
31
0
0
LINE
5
141
100
AcDbEntity
8
0
100
AcDbLine
10
29.250000000000007
20
-32.250000000000007
30
0
11
10.250000000000004
21
-32.250000000000007
31
0
0
LINE
5
142
100
AcDbEntity
8
0
100
AcDbLine
10
48.75
20
-77.75
30
0
11
48.75
21
-72.75
31
0
0
LINE
5
143
100
AcDbEntity
8
0
100
AcDbLine
10
48.250000000000014
20
-20.250000000000004
30
0
11
29.250000000000007
21
-20.250000000000004
31
0
0
LINE
5
144
100
AcDbEntity
8
0
100
AcDbLine
10
29.250000000000007
20
-20.250000000000004
30
0
11
29.250000000000007
21
-32.250000000000007
31
0
0
LINE
5
145
100
AcDbEntity
8
0
100
AcDbLine
10
48.75
20
-72.75
30
0
11
67.250000000000014
21
-72.75
31
0
0
LINE
5
146
100
AcDbEntity
8
0
100
AcDbLine
10
67.75
20
-20.250000000000004
30
0
11
67.75
21
-15.250000000000004
31
0
0
LINE
5
147
100
AcDbEntity
8
0
100
AcDbLine
10
67.75
20
-15.250000000000004
30
0
11
48.250000000000014
21
-15.250000000000004
31
0
0
LINE
5
148
100
AcDbEntity
8
0
100
AcDbLine
10
48.250000000000014
20
-15.250000000000004
30
0
11
48.250000000000014
21
-20.250000000000004
31
0
0
LINE
5
149
100
AcDbEntity
8
0
100
AcDbLine
10
67.250000000000014
20
-115.71998436808941
30
0
11
67.250000000000014
21
-72.75
31
0
0
LINE
5
150
100
AcDbEntity
8
0
100
AcDbLine
10
86.75
20
-22.750000000000004
30
0
11
86.75
21
-20.250000000000004
31
0
0
LINE
5
151
100
AcDbEntity
8
0
100
AcDbLine
10
86.75
20
-20.250000000000004
30
0
11
67.75
21
-20.250000000000004
31
0
0
LINE
5
152
100
AcDbEntity
8
0
100
AcDbLine
10
105.75
20
-65.335333700000007
30
0
11
105.75
21
-22.750000000000004
31
0
0
LINE
5
153
100
AcDbEntity
8
0
100
AcDbLine
10
105.75
20
-22.750000000000004
30
0
11
86.75
21
-22.750000000000004
31
0
0
LINE
5
154
100
AcDbEntity
8
0
100
AcDbLine
10
67.250000000000014
20
-100.55
30
0
11
86.972178800000037
21
-100.55
31
0
0
LINE
5
155
100
AcDbEntity
8
0
100
AcDbLine
10
86.972178800000037
20
-100.55
30
0
11
106.61353830000003
21
-104.01330159999999
31
0
0
LINE
5
156
100
AcDbEntity
8
0
100
AcDbLine
10
105.75
20
-84.060217500000007
30
0
11
111.60799640000005
21
-85.09314040000001
31
0
0
LINE
5
157
100
AcDbEntity
8
0
100
AcDbLine
10
106.61353830000003
20
-104.01330159999999
30
0
11
125.14632460000001
21
-110.75868410000001
31
0
0
LINE
5
158
100
AcDbEntity
8
0
100
AcDbLine
10
123.34056451886593
20
-115.71996916967144
30
0
11
131.81571740000004
21
-92.434677900000025
31
0
0
LINE
5
159
100
AcDbEntity
8
0
100
AcDbLine
10
111.74829099999999
20
-85.130732100000017
30
0
11
133.46017944460493
21
-93.033213128411347
31
0
0
ARC
5
160
100
AcDbEntity
8
0
100
AcDbCircle
10
32.000000000000014
20
-77.5
30
0
40
2.1999999999999975
210
0
220
0
230
1
100
AcDbArc
50
270
51
353.47502115585615
0
LINE
5
161
100
AcDbEntity
8
0
100
AcDbLine
10
34.185749299439451
20
-77.75
30
0
11
48.75
21
-77.75
31
0
0
LINE
5
162
100
AcDbEntity
8
0
100
AcDbLine
10
107.5
20
-65.335333700000007
30
0
11
105.75
21
-65.335333700000007
31
0
0
LINE
5
163
100
AcDbEntity
8
0
100
AcDbLine
10
105.75
20
-84.060217500000007
30
0
11
105.75
21
-65.335333700000007
31
0
0
LINE
5
164
100
AcDbEntity
8
0
100
AcDbLine
10
8.4999999999999964
20
-90.950000000000003
30
0
11
30.950000000000017
21
-90.950000000000003
31
0
0
LINE
5
165
100
AcDbEntity
8
0
100
AcDbLine
10
35.075304862936363
20
-78.950000000000003
30
0
11
49.950000000000003
21
-78.950000000000003
31
0
0
LINE
5
166
100
AcDbEntity
8
0
100
AcDbLine
10
49.950000000000003
20
-78.950000000000003
30
0
11
49.950000000000003
21
-73.950000000000003
31
0
0
LINE
5
167
100
AcDbEntity
8
0
100
AcDbLine
10
49.950000000000003
20
-73.950000000000003
30
0
11
66.050000000000011
21
-73.950000000000003
31
0
0
LINE
5
168
100
AcDbEntity
8
0
100
AcDbLine
10
107.5
20
-82.591793165629852
30
0
11
107.5
21
-65.335333700000007
31
0
0
LINE
5
169
100
AcDbEntity
8
0
100
AcDbLine
10
107.5
20
-82.591793165629852
30
0
11
110.46576416524168
21
-83.114737447787064
31
0
0
LINE
5
170
100
AcDbEntity
8
0
100
AcDbLine
10
113.72669785090743
20
-83.988502197119743
30
0
11
133.3269658390179
21
-91.122416242551793
31
0
0
LINE
5
171
100
AcDbEntity
8
0
100
AcDbLine
10
110.46576416524168
20
-83.114737447787064
30
0
11
113.72669785090743
21
-83.988502197119743
31
0
0
LINE
5
172
100
AcDbEntity
8
0
100
AcDbLine
10
66.050000000000011
20
-112.7199847148875
30
0
11
66.050000000000011
21
-73.950000000000003
31
0
0
LINE
5
173
100
AcDbEntity
8
0
100
AcDbLine
10
111.60799640000005
20
-85.09314040000001
30
0
11
111.74829099999999
21
-85.130732100000017
31
0
0
LINE
5
174
100
AcDbEntity
8
0
100
AcDbLine
10
32.000000000000014
20
-79.700000000000003
30
0
11
29.750000000000014
21
-79.700000000000003
31
0
0
LINE
5
175
100
AcDbEntity
8
0
100
AcDbLine
10
8.4999999999999964
20
-90.950000000000003
30
0
11
30.950000000000017
21
-90.950000000000003
31
0
0
LINE
5
176
100
AcDbEntity
8
0
100
AcDbLine
10
30.950000000000017
20
-90.950000000000003
30
0
11
30.950000000000017
21
-80.900000000000006
31
0
0
LINE
5
177
100
AcDbEntity
8
0
100
AcDbLine
10
32.000000000000014
20
-80.900000000000006
30
0
11
30.950000000000017
21
-80.900000000000006
31
0
0
ARC
5
178
100
AcDbEntity
8
0
100
AcDbCircle
10
32.000000000000014
20
-77.5
30
0
40
3.3999999999999986
210
0
220
0
230
1
100
AcDbArc
50
270
51
334.75621759117189
0
LINE
5
179
100
AcDbEntity
8
0
100
AcDbLine
10
35.075304862936363
20
-78.950000000000003
30
0
11
49.950000000000003
21
-78.950000000000003
31
0
0
LINE
5
180
100
AcDbEntity
8
0
100
AcDbLine
10
49.950000000000003
20
-78.950000000000003
30
0
11
49.950000000000003
21
-73.950000000000003
31
0
0
LINE
5
181
100
AcDbEntity
8
0
100
AcDbLine
10
49.950000000000003
20
-73.950000000000003
30
0
11
66.050000000000011
21
-73.950000000000003
31
0
0
LINE
5
182
100
AcDbEntity
8
0
100
AcDbLine
10
66.050000000000011
20
-115.71998436808941
30
0
11
66.050000000000011
21
-73.950000000000003
31
0
0
ENDSEC
0
SECTION
2
OBJECTS
0
DICTIONARY
5
C
100
AcDbDictionary
3
ACAD_GROUP
350
D
3
ACAD_MLINESTYLE
350
17
0
DICTIONARY
5
D
100
AcDbDictionary
0
DICTIONARY
5
1A
330
C
100
AcDbDictionary
0
DICTIONARY
5
17
100
AcDbDictionary
0
ENDSEC
0
EOF
