0
SECTION
2
HEADER
9
$INSUNITS
70
4
9
$ACADVER
1
AC1014
9
$HANDSEED
5
FFFF
0
ENDSEC
0
SECTION
2
TABLES
0
TABLE
2
VPORT
5
8
100
AcDbSymbolTable
0
ENDTAB
0
TABLE
2
LTYPE
5
5
100
AcDbSymbolTable
0
LTYPE
5
14
100
AcDbSymbolTableRecord
100
AcDbLinetypeTableRecord
2
BYBLOCK
70
0
0
LTYPE
5
15
100
AcDbSymbolTableRecord
100
AcDbLinetypeTableRecord
2
BYLAYER
70
0
0
LTYPE
5
16
100
AcDbSymbolTableRecord
100
AcDbLinetypeTableRecord
2
DASHED
70
0
3
Dashed __ __ __ __ __ __ __ __ __ __ __ __ __ _
72
65
73
2
40
0.75
49
0.5
74
0
49
-0.25
74
0
0
ENDTAB
0
TABLE
2
LAYER
5
2
100
AcDbSymbolTable
70
3
0
LAYER
5
50
100
AcDbSymbolTableRecord
100
AcDbLayerTableRecord
2
1
70
0
62
7
6
DASHED
0
LAYER
5
51
100
AcDbSymbolTableRecord
100
AcDbLayerTableRecord
2
0
70
0
62
7
6
CONTINUOUS
0
ENDTAB
0
TABLE
2
STYLE
5
3
100
AcDbSymbolTable
70
1
0
STYLE
5
11
100
AcDbSymbolTableRecord
100
AcDbTextStyleTableRecord
2
STANDARD
70
0
0
ENDTAB
0
TABLE
2
VIEW
5
6
100
AcDbSymbolTable
70
0
0
ENDTAB
0
TABLE
2
UCS
5
7
100
AcDbSymbolTable
70
0
0
ENDTAB
0
TABLE
2
APPID
5
9
100
AcDbSymbolTable
70
2
0
APPID
5
12
100
AcDbSymbolTableRecord
100
AcDbRegAppTableRecord
2
ACAD
70
0
0
ENDTAB
0
TABLE
2
DIMSTYLE
5
A
100
AcDbSymbolTable
70
1
0
ENDTAB
0
TABLE
2
BLOCK_RECORD
5
1
100
AcDbSymbolTable
70
1
0
BLOCK_RECORD
5
1F
100
AcDbSymbolTableRecord
100
AcDbBlockTableRecord
2
*MODEL_SPACE
0
BLOCK_RECORD
5
1B
100
AcDbSymbolTableRecord
100
AcDbBlockTableRecord
2
*PAPER_SPACE
0
ENDTAB
0
ENDSEC
0
SECTION
2
BLOCKS
0
BLOCK
5
20
100
AcDbEntity
100
AcDbBlockBegin
2
*MODEL_SPACE
0
ENDBLK
5
21
100
AcDbEntity
100
AcDbBlockEnd
0
BLOCK
5
1C
100
AcDbEntity
100
AcDbBlockBegin
2
*PAPER_SPACE
0
ENDBLK
5
1D
100
AcDbEntity
100
AcDbBlockEnd
0
ENDSEC
0
SECTION
2
ENTITIES
0
LWPOLYLINE
5
100
100
AcDbEntity
8
0
100
AcDbPolyline
90
10
70
1
43
0.0
10
-131.5
20
-112.72000030000001
10
-13.705213500000006
20
-112.7199684
10
-6.0652287999999999
20
-91.729283000000024
10
-32.5
20
-65.335333700000007
10
-32.5
20
-21.173984399999995
10
-72.311152599999971
20
-13.517993599999997
10
-72.40471909999998
20
-13.5
10
-91.62310559999996
20
-13.5
10
-111.89826940000002
20
-18.568790899999996
10
-131.5
20
-30.948831299999995
0
LWPOLYLINE
5
101
100
AcDbEntity
8
0
100
AcDbPolyline
90
9
70
1
43
0.0
10
-134.5
20
-115.72000109999999
10
-11.604590699999981
20
-115.71996780000001
10
-2.591920899999991
20
-90.957861100000002
10
-29.499999999999993
20
-64.091334799999998
10
-29.499999999999993
20
-18.695937799999996
10
-72.118876299999997
20
-10.500000000000004
10
-91.992422499999989
20
-10.500000000000004
10
-113.09307769999998
20
-15.775163799999996
10
-134.5
20
-29.295325299999995
0
LWPOLYLINE
5
102
100
AcDbEntity
8
0
100
AcDbPolyline
90
9
70
1
43
0.0
10
-132.69999999999999
20
-113.92000060000001
10
-12.864964299999997
20
-113.91996820000001
10
-4.6759055999999788
20
-91.420714200000006
10
-31.29999999999999
20
-64.8377342
10
-31.29999999999999
20
-20.182765800000002
10
-72.29038199999998
20
-12.300000000000001
10
-91.770832399999989
20
-12.300000000000001
10
-112.37619270000002
20
-17.451340100000007
10
-132.69999999999999
20
-30.287428900000002
0
LWPOLYLINE
5
103
100
AcDbEntity
8
0
100
AcDbPolyline
90
10
70
1
43
0.0
10
-133.30000000000001
20
-114.52000080000003
10
-12.444839799999983
20
-114.5199681
10
-3.9812440000000038
20
-91.266429900000006
10
-30.699999999999967
20
-64.588934399999999
10
-30.699999999999967
20
-19.687156399999999
10
-71.97122730000001
20
-11.750381900000001
10
-72.233213399999997
20
-11.699999999999999
10
-91.844695799999982
20
-11.699999999999999
10
-112.61515439999998
20
-16.892614700000003
10
-133.30000000000001
20
-29.956727700000005
0
CIRCLE
5
104
100
AcDbEntity
8
0
100
AcDbCircle
10
-107.99999999999999
20
-39.5
30
0
40
2.2000000000000002
210
0
220
0
230
1
0
CIRCLE
5
105
100
AcDbEntity
8
0
100
AcDbCircle
10
-107.99999999999999
20
-77.5
30
0
40
2.2000000000000002
210
0
220
0
230
1
0
CIRCLE
5
106
100
AcDbEntity
8
0
100
AcDbCircle
10
-55.999999999999979
20
-39.5
30
0
40
2.2000000000000002
210
0
220
0
230
1
0
CIRCLE
5
107
100
AcDbEntity
8
0
100
AcDbCircle
10
-39.864413899999995
20
-83.324101500000012
30
0
40
2.2000000000000002
210
0
220
0
230
1
0
LWPOLYLINE
5
108
100
AcDbEntity
8
0
100
AcDbPolyline
90
4
70
1
43
0.0
10
-129.5
20
-109.61000000000001
10
-96.499999999999986
20
-109.61000000000001
10
-96.499999999999986
20
-91.610000000000014
10
-129.5
20
-91.610000000000014
0
LINE
5
109
100
AcDbEntity
8
0
100
AcDbLine
10
-92.974999999999994
20
-106.98999999999999
30
0
11
-92.974999999999994
21
-112.84
31
0
0
LINE
5
110
100
AcDbEntity
8
0
100
AcDbLine
10
-84.175000000000011
20
-112.84
30
0
11
-84.175000000000011
21
-106.98999999999999
31
0
0
LINE
5
111
100
AcDbEntity
8
0
100
AcDbLine
10
-84.175000000000011
20
-106.98999999999999
30
0
11
-92.974999999999994
21
-106.98999999999999
31
0
0
LWPOLYLINE
5
112
100
AcDbEntity
8
0
100
AcDbPolyline
90
4
70
1
43
0.0
10
-82.175000000000011
20
-111.47500000000001
10
-73.175000000000011
20
-111.47500000000001
10
-73.175000000000011
20
-107.97499999999999
10
-82.175000000000011
20
-107.97499999999999
0
LWPOLYLINE
5
113
100
AcDbEntity
8
0
100
AcDbPolyline
90
4
70
1
43
0.0
10
-17.393576799999977
20
-82.171751400000019
10
-25.171751399999991
20
-74.393576799999991
10
-31.606423199999973
20
-80.828248600000009
10
-23.828248599999995
20
-88.606423200000023
0
LWPOLYLINE
5
114
100
AcDbEntity
8
0
100
AcDbPolyline
90
4
70
1
43
0.0
10
-96.799999999999997
20
-88.450000000000003
10
-96.799999999999997
20
-79.549999999999997
10
-105.39999999999999
20
-79.549999999999997
10
-105.39999999999999
20
-88.450000000000003
0
ENDSEC
0
SECTION
2
OBJECTS
0
DICTIONARY
5
C
100
AcDbDictionary
3
ACAD_GROUP
350
D
3
ACAD_MLINESTYLE
350
17
0
DICTIONARY
5
D
100
AcDbDictionary
0
DICTIONARY
5
1A
330
C
100
AcDbDictionary
0
DICTIONARY
5
17
100
AcDbDictionary
0
ENDSEC
0
EOF
