0
SECTION
2
HEADER
9
$INSUNITS
70
4
9
$ACADVER
1
AC1014
9
$HANDSEED
5
FFFF
0
ENDSEC
0
SECTION
2
TABLES
0
TABLE
2
VPORT
5
8
100
AcDbSymbolTable
0
ENDTAB
0
TABLE
2
LTYPE
5
5
100
AcDbSymbolTable
0
LTYPE
5
14
100
AcDbSymbolTableRecord
100
AcDbLinetypeTableRecord
2
BYBLOCK
70
0
0
LTYPE
5
15
100
AcDbSymbolTableRecord
100
AcDbLinetypeTableRecord
2
BYLAYER
70
0
0
LTYPE
5
16
100
AcDbSymbolTableRecord
100
AcDbLinetypeTableRecord
2
DASHED
70
0
3
Dashed __ __ __ __ __ __ __ __ __ __ __ __ __ _
72
65
73
2
40
0.75
49
0.5
74
0
49
-0.25
74
0
0
ENDTAB
0
TABLE
2
LAYER
5
2
100
AcDbSymbolTable
70
3
0
LAYER
5
50
100
AcDbSymbolTableRecord
100
AcDbLayerTableRecord
2
1
70
0
62
7
6
DASHED
0
LAYER
5
51
100
AcDbSymbolTableRecord
100
AcDbLayerTableRecord
2
0
70
0
62
7
6
CONTINUOUS
0
ENDTAB
0
TABLE
2
STYLE
5
3
100
AcDbSymbolTable
70
1
0
STYLE
5
11
100
AcDbSymbolTableRecord
100
AcDbTextStyleTableRecord
2
STANDARD
70
0
0
ENDTAB
0
TABLE
2
VIEW
5
6
100
AcDbSymbolTable
70
0
0
ENDTAB
0
TABLE
2
UCS
5
7
100
AcDbSymbolTable
70
0
0
ENDTAB
0
TABLE
2
APPID
5
9
100
AcDbSymbolTable
70
2
0
APPID
5
12
100
AcDbSymbolTableRecord
100
AcDbRegAppTableRecord
2
ACAD
70
0
0
ENDTAB
0
TABLE
2
DIMSTYLE
5
A
100
AcDbSymbolTable
70
1
0
ENDTAB
0
TABLE
2
BLOCK_RECORD
5
1
100
AcDbSymbolTable
70
1
0
BLOCK_RECORD
5
1F
100
AcDbSymbolTableRecord
100
AcDbBlockTableRecord
2
*MODEL_SPACE
0
BLOCK_RECORD
5
1B
100
AcDbSymbolTableRecord
100
AcDbBlockTableRecord
2
*PAPER_SPACE
0
ENDTAB
0
ENDSEC
0
SECTION
2
BLOCKS
0
BLOCK
5
20
100
AcDbEntity
100
AcDbBlockBegin
2
*MODEL_SPACE
0
ENDBLK
5
21
100
AcDbEntity
100
AcDbBlockEnd
0
BLOCK
5
1C
100
AcDbEntity
100
AcDbBlockBegin
2
*PAPER_SPACE
0
ENDBLK
5
1D
100
AcDbEntity
100
AcDbBlockEnd
0
ENDSEC
0
SECTION
2
ENTITIES
0
LWPOLYLINE
5
100
100
AcDbEntity
8
0
100
AcDbPolyline
90
10
70
1
43
0.0
10
8.4999999999999964
20
-222.72000030000001
10
126.29478649999999
20
-222.7199684
10
133.9347712
20
-201.72928300000001
10
107.5
20
-175.33533370000001
10
107.5
20
-131.17398439999999
10
67.688847400000029
20
-123.5179936
10
67.59528090000002
20
-123.5
10
48.37689440000004
20
-123.5
10
28.101730599999986
20
-128.56879090000001
10
8.4999999999999964
20
-140.94883129999999
0
LWPOLYLINE
5
101
100
AcDbEntity
8
0
100
AcDbPolyline
90
9
70
1
43
0.0
10
5.5000000000000071
20
-225.72000109999999
10
128.39540930000001
20
-225.71996780000001
10
137.40807910000001
20
-200.95786110000003
10
110.5
20
-174.09133480000003
10
110.5
20
-128.6959378
10
67.881123700000003
20
-120.5
10
48.007577500000011
20
-120.49999999999999
10
26.906922300000016
20
-125.77516379999999
10
5.5000000000000071
20
-139.29532529999997
0
LWPOLYLINE
5
102
100
AcDbEntity
8
0
100
AcDbPolyline
90
9
70
1
43
0.0
10
7.3000000000000043
20
-223.92000060000001
10
127.1350357
20
-223.91996820000003
10
135.32409440000004
20
-201.42071420000002
10
108.70000000000002
20
-174.8377342
10
108.70000000000002
20
-130.1827658
10
67.70961800000002
20
-122.30000000000001
10
48.229167600000018
20
-122.30000000000001
10
27.623807299999985
20
-127.45134010000001
10
7.3000000000000043
20
-140.28742890000001
0
LWPOLYLINE
5
103
100
AcDbEntity
8
0
100
AcDbPolyline
90
10
70
1
43
0.0
10
6.6999999999999993
20
-224.52000080000005
10
127.55516020000002
20
-224.51996810000003
10
136.018756
20
-201.26642989999999
10
109.30000000000004
20
-174.5889344
10
109.30000000000004
20
-129.68715640000002
10
68.02877269999999
20
-121.75038190000001
10
67.766786600000003
20
-121.7
10
48.155304200000018
20
-121.7
10
27.384845600000016
20
-126.8926147
10
6.6999999999999993
20
-139.95672770000002
0
CIRCLE
5
104
100
AcDbEntity
8
0
100
AcDbCircle
10
32.000000000000014
20
-149.5
30
0
40
2.2000000000000002
210
0
220
0
230
1
0
CIRCLE
5
105
100
AcDbEntity
8
0
100
AcDbCircle
10
84.000000000000028
20
-149.5
30
0
40
2.2000000000000002
210
0
220
0
230
1
0
CIRCLE
5
106
100
AcDbEntity
8
0
100
AcDbCircle
10
100.13558610000001
20
-193.32410150000001
30
0
40
2.2000000000000002
210
0
220
0
230
1
0
LWPOLYLINE
5
107
100
AcDbEntity
8
0
100
AcDbPolyline
90
4
70
1
43
0.0
10
10.500000000000007
20
-219.61000000000001
10
43.500000000000014
20
-219.61000000000001
10
43.500000000000014
20
-201.61000000000001
10
10.500000000000007
20
-201.61000000000001
0
LINE
5
108
100
AcDbEntity
8
0
100
AcDbLine
10
47.025000000000006
20
-216.98999999999998
30
0
11
47.025000000000006
21
-222.83999999999997
31
0
0
LINE
5
109
100
AcDbEntity
8
0
100
AcDbLine
10
55.824999999999996
20
-222.83999999999997
30
0
11
55.824999999999996
21
-216.98999999999998
31
0
0
LINE
5
110
100
AcDbEntity
8
0
100
AcDbLine
10
55.824999999999996
20
-216.98999999999998
30
0
11
47.025000000000006
21
-216.98999999999998
31
0
0
LWPOLYLINE
5
111
100
AcDbEntity
8
0
100
AcDbPolyline
90
4
70
1
43
0.0
10
57.824999999999989
20
-221.47500000000002
10
66.824999999999989
20
-221.47500000000002
10
66.824999999999989
20
-217.97499999999999
10
57.824999999999989
20
-217.97499999999999
0
LINE
5
112
100
AcDbEntity
8
0
100
AcDbLine
10
122.60642320000002
20
-192.17175140000001
30
0
11
114.82824860000001
21
-184.39357680000001
31
0
0
LINE
5
113
100
AcDbEntity
8
0
100
AcDbLine
10
114.82824860000001
20
-184.39357680000001
30
0
11
108.39357680000003
21
-190.82824860000002
31
0
0
LINE
5
114
100
AcDbEntity
8
0
100
AcDbLine
10
108.39357680000003
20
-190.82824860000002
30
0
11
110.72594202849396
21
-193.16061382849398
31
0
0
LINE
5
115
100
AcDbEntity
8
0
100
AcDbLine
10
118.90494470499787
20
-195.87322989500217
30
0
11
122.60642320000002
21
-192.17175140000001
31
0
0
LINE
5
116
100
AcDbEntity
8
0
100
AcDbLine
10
43.200000000000003
20
-198.44999999999999
30
0
11
43.200000000000003
21
-189.54999999999998
31
0
0
LINE
5
117
100
AcDbEntity
8
0
100
AcDbLine
10
43.200000000000003
20
-189.54999999999998
30
0
11
34.71247119800379
21
-189.54999999999998
31
0
0
LINE
5
118
100
AcDbEntity
8
0
100
AcDbLine
10
34.600000000000009
20
-189.69089023002067
30
0
11
34.600000000000009
21
-198.44999999999999
31
0
0
LINE
5
119
100
AcDbEntity
8
0
100
AcDbLine
10
34.600000000000009
20
-198.44999999999999
30
0
11
43.200000000000003
21
-198.44999999999999
31
0
0
LWPOLYLINE
5
120
100
AcDbEntity
8
0
100
AcDbPolyline
90
4
70
1
43
0.0
10
13.000000000000007
20
-197.00000000000003
10
27.000000000000011
20
-197.00000000000003
10
27.000000000000011
20
-183.00000000000006
10
13.000000000000007
20
-183
0
LWPOLYLINE
5
121
100
AcDbEntity
8
0
100
AcDbPolyline
90
4
70
1
43
0.0
10
13.000000000000007
20
-178
10
27.000000000000011
20
-178
10
27.000000000000011
20
-164
10
13.000000000000007
20
-164
0
LWPOLYLINE
5
122
100
AcDbEntity
8
0
100
AcDbPolyline
90
4
70
1
43
0.0
10
13.000000000000007
20
-159
10
27.000000000000011
20
-159
10
27.000000000000011
20
-145
10
13.000000000000007
20
-145
0
LWPOLYLINE
5
123
100
AcDbEntity
8
0
100
AcDbPolyline
90
4
70
1
43
0.0
10
32.000000000000014
20
-185
10
46.000000000000014
20
-185
10
46.000000000000014
20
-171
10
32.000000000000014
20
-171
0
LWPOLYLINE
5
124
100
AcDbEntity
8
0
100
AcDbPolyline
90
4
70
1
43
0.0
10
32.000000000000014
20
-166
10
46.000000000000014
20
-166
10
46.000000000000014
20
-152
10
32.000000000000014
20
-152
0
LWPOLYLINE
5
125
100
AcDbEntity
8
0
100
AcDbPolyline
90
4
70
1
43
0.0
10
32.000000000000014
20
-147
10
46.000000000000014
20
-147
10
46.000000000000014
20
-133
10
32.000000000000014
20
-133
0
LWPOLYLINE
5
126
100
AcDbEntity
8
0
100
AcDbPolyline
90
4
70
1
43
0.0
10
51.000000000000014
20
-180
10
65
20
-180
10
65
20
-166
10
51.000000000000014
20
-166
0
LWPOLYLINE
5
127
100
AcDbEntity
8
0
100
AcDbPolyline
90
4
70
1
43
0.0
10
51.000000000000014
20
-161
10
65
20
-161
10
65
20
-147
10
51.000000000000014
20
-147
0
LWPOLYLINE
5
128
100
AcDbEntity
8
0
100
AcDbPolyline
90
4
70
1
43
0.0
10
51.000000000000014
20
-142
10
65
20
-142
10
65
20
-127.99999999999999
10
51.000000000000014
20
-128
0
LWPOLYLINE
5
129
100
AcDbEntity
8
0
100
AcDbPolyline
90
4
70
1
43
0.0
10
70
20
-185
10
84.000000000000028
20
-185
10
84.000000000000028
20
-171
10
70
20
-171
0
LWPOLYLINE
5
130
100
AcDbEntity
8
0
100
AcDbPolyline
90
4
70
1
43
0.0
10
70
20
-166
10
84.000000000000028
20
-166
10
84.000000000000028
20
-152
10
70
20
-152
0
LWPOLYLINE
5
131
100
AcDbEntity
8
0
100
AcDbPolyline
90
4
70
1
43
0.0
10
70
20
-147
10
84.000000000000028
20
-147
10
84.000000000000028
20
-133
10
70
20
-133
0
LWPOLYLINE
5
132
100
AcDbEntity
8
0
100
AcDbPolyline
90
4
70
1
43
0.0
10
89.000000000000028
20
-178
10
103
20
-178
10
103
20
-164
10
89.000000000000028
20
-164
0
LWPOLYLINE
5
133
100
AcDbEntity
8
0
100
AcDbPolyline
90
4
70
1
43
0.0
10
89.000000000000028
20
-159
10
103
20
-159
10
103
20
-145
10
89.000000000000028
20
-145
0
LWPOLYLINE
5
134
100
AcDbEntity
8
0
100
AcDbPolyline
90
4
70
1
43
0.0
10
70
20
-207.80000000000001
10
84.000000000000028
20
-207.80000000000001
10
84.000000000000028
20
-193.80000000000001
10
70
20
-193.80000000000001
0
LWPOLYLINE
5
135
100
AcDbEntity
8
0
100
AcDbPolyline
90
4
70
1
43
0.0
10
90.376736900000026
20
-208.35789220000004
10
104.16404540000002
20
-210.78896670000003
10
106.59511990000001
20
-197.00165820000001
10
92.80781140000002
20
-194.57058370000001
0
LWPOLYLINE
5
136
100
AcDbEntity
8
0
100
AcDbPolyline
90
4
70
1
43
0.0
10
110.34702859999999
20
-212.44569189999999
10
123.50272520000001
20
-217.23397390000002
10
128.2910072
20
-204.07827730000002
10
115.13531060000003
20
-199.28999529999999
0
LINE
5
137
100
AcDbEntity
8
0
100
AcDbLine
10
8.4999999999999964
20
-199.75
30
0
11
29.750000000000014
21
-199.75
31
0
0
LINE
5
138
100
AcDbEntity
8
0
100
AcDbLine
10
29.750000000000014
20
-199.75
30
0
11
29.750000000000014
21
-189.69999999999999
31
0
0
LINE
5
139
100
AcDbEntity
8
0
100
AcDbLine
10
10.250000000000004
20
-199.75
30
0
11
10.250000000000004
21
-142.25
31
0
0
LINE
5
140
100
AcDbEntity
8
0
100
AcDbLine
10
29.250000000000007
20
-142.25
30
0
11
10.250000000000004
21
-142.25
31
0
0
LINE
5
141
100
AcDbEntity
8
0
100
AcDbLine
10
48.75
20
-187.75
30
0
11
48.75
21
-182.75
31
0
0
LINE
5
142
100
AcDbEntity
8
0
100
AcDbLine
10
48.250000000000014
20
-130.25
30
0
11
29.250000000000007
21
-130.25
31
0
0
LINE
5
143
100
AcDbEntity
8
0
100
AcDbLine
10
29.250000000000007
20
-130.25
30
0
11
29.250000000000007
21
-142.25
31
0
0
LINE
5
144
100
AcDbEntity
8
0
100
AcDbLine
10
48.75
20
-182.75
30
0
11
67.250000000000014
21
-182.75
31
0
0
LINE
5
145
100
AcDbEntity
8
0
100
AcDbLine
10
67.75
20
-130.25
30
0
11
67.75
21
-125.25
31
0
0
LINE
5
146
100
AcDbEntity
8
0
100
AcDbLine
10
67.75
20
-125.25
30
0
11
48.250000000000014
21
-125.25
31
0
0
LINE
5
147
100
AcDbEntity
8
0
100
AcDbLine
10
48.250000000000014
20
-125.25
30
0
11
48.250000000000014
21
-130.25
31
0
0
LINE
5
148
100
AcDbEntity
8
0
100
AcDbLine
10
67.250000000000014
20
-225.7199843680894
30
0
11
67.250000000000014
21
-182.75
31
0
0
LINE
5
149
100
AcDbEntity
8
0
100
AcDbLine
10
86.75
20
-142.25
30
0
11
86.75
21
-130.25000000000003
31
0
0
LINE
5
150
100
AcDbEntity
8
0
100
AcDbLine
10
86.75
20
-130.25000000000003
30
0
11
67.75
21
-130.25
31
0
0
LINE
5
151
100
AcDbEntity
8
0
100
AcDbLine
10
105.75
20
-194.06021750000002
30
0
11
105.75
21
-175.33533370000001
31
0
0
LINE
5
152
100
AcDbEntity
8
0
100
AcDbLine
10
105.75
20
-142.25
30
0
11
86.75
21
-142.25
31
0
0
LINE
5
153
100
AcDbEntity
8
0
100
AcDbLine
10
67.250000000000014
20
-210.55000000000001
30
0
11
86.972178800000037
21
-210.55000000000001
31
0
0
LINE
5
154
100
AcDbEntity
8
0
100
AcDbLine
10
86.972178800000037
20
-210.55000000000001
30
0
11
106.61353830000003
21
-214.01330160000001
31
0
0
LINE
5
155
100
AcDbEntity
8
0
100
AcDbLine
10
105.75
20
-194.06021750000002
30
0
11
111.60799640000005
21
-195.09314039999998
31
0
0
LINE
5
156
100
AcDbEntity
8
0
100
AcDbLine
10
106.61353830000003
20
-214.01330160000001
30
0
11
125.14632460000001
21
-220.75868410000004
31
0
0
LINE
5
157
100
AcDbEntity
8
0
100
AcDbLine
10
123.34056451886595
20
-225.7199691696714
30
0
11
131.81571740000004
21
-202.43467790000005
31
0
0
LINE
5
158
100
AcDbEntity
8
0
100
AcDbLine
10
111.74829099999999
20
-195.13073210000002
30
0
11
133.47229441809904
21
-203.03762261809905
31
0
0
LINE
5
159
100
AcDbEntity
8
0
100
AcDbLine
10
107.5
20
-175.33533370000001
30
0
11
105.75
21
-175.33533370000001
31
0
0
LINE
5
160
100
AcDbEntity
8
0
100
AcDbLine
10
32.000000000000014
20
-189.69999999999999
30
0
11
29.750000000000014
21
-189.69999999999999
31
0
0
ARC
5
161
100
AcDbEntity
8
0
100
AcDbCircle
10
32.000000000000014
20
-187.5
30
0
40
2.1999999999999886
210
0
220
0
230
1
100
AcDbArc
50
270
51
353.47502115585615
0
LINE
5
162
100
AcDbEntity
8
0
100
AcDbLine
10
29.750000000000014
20
-187.75
30
0
11
29.814250700560567
21
-187.75
31
0
0
LINE
5
163
100
AcDbEntity
8
0
100
AcDbLine
10
34.185749299439451
20
-187.75
30
0
11
48.75
21
-187.75
31
0
0
LINE
5
164
100
AcDbEntity
8
0
100
AcDbLine
10
8.4999999999999964
20
-200.95000000000002
30
0
11
30.950000000000017
21
-200.95000000000002
31
0
0
LINE
5
165
100
AcDbEntity
8
0
100
AcDbLine
10
30.950000000000017
20
-200.95000000000002
30
0
11
30.950000000000017
21
-190.90000000000001
31
0
0
LINE
5
166
100
AcDbEntity
8
0
100
AcDbLine
10
32.000000000000014
20
-190.90000000000001
30
0
11
30.950000000000017
21
-190.90000000000001
31
0
0
ARC
5
167
100
AcDbEntity
8
0
100
AcDbCircle
10
32.000000000000014
20
-187.5
30
0
40
3.3999999999999986
210
0
220
0
230
1
100
AcDbArc
50
270
51
334.75621759117206
0
LINE
5
168
100
AcDbEntity
8
0
100
AcDbLine
10
35.075304862936356
20
-188.94999999999999
30
0
11
49.950000000000003
21
-188.94999999999999
31
0
0
LINE
5
169
100
AcDbEntity
8
0
100
AcDbLine
10
49.950000000000003
20
-188.94999999999999
30
0
11
49.950000000000003
21
-183.94999999999999
31
0
0
LINE
5
170
100
AcDbEntity
8
0
100
AcDbLine
10
49.950000000000003
20
-183.94999999999999
30
0
11
66.050000000000011
21
-183.94999999999999
31
0
0
LINE
5
171
100
AcDbEntity
8
0
100
AcDbLine
10
66.050000000000011
20
-225.7199843680894
30
0
11
66.050000000000011
21
-183.94999999999999
31
0
0
LINE
5
172
100
AcDbEntity
8
0
100
AcDbLine
10
105.75
20
-175.33533370000001
30
0
11
105.75
21
-142.25
31
0
0
LINE
5
173
100
AcDbEntity
8
0
100
AcDbLine
10
111.60799640000005
20
-195.09314039999998
30
0
11
111.74829099999999
21
-195.13073210000002
31
0
0
LINE
5
174
100
AcDbEntity
8
0
100
AcDbLine
10
107.5
20
-192.59179316562981
30
0
11
107.5
21
-175.33533370000001
31
0
0
LINE
5
175
100
AcDbEntity
8
0
100
AcDbLine
10
107.5
20
-192.59179316562981
30
0
11
111.9871258673794
21
-193.38299458453108
31
0
0
LINE
5
176
100
AcDbEntity
8
0
100
AcDbLine
10
111.9871258673794
20
-193.38299458453108
30
0
11
112.27502679870021
21
-193.46013715053107
31
0
0
LINE
5
177
100
AcDbEntity
8
0
100
AcDbLine
10
112.27502679870021
20
-193.46013715053107
30
0
11
133.32696583901787
21
-201.12241624255176
31
0
0
ENDSEC
0
SECTION
2
OBJECTS
0
DICTIONARY
5
C
100
AcDbDictionary
3
ACAD_GROUP
350
D
3
ACAD_MLINESTYLE
350
17
0
DICTIONARY
5
D
100
AcDbDictionary
0
DICTIONARY
5
1A
330
C
100
AcDbDictionary
0
DICTIONARY
5
17
100
AcDbDictionary
0
ENDSEC
0
EOF
