0
SECTION
2
HEADER
9
$INSUNITS
70
4
9
$ACADVER
1
AC1014
9
$HANDSEED
5
FFFF
0
ENDSEC
0
SECTION
2
TABLES
0
TABLE
2
VPORT
5
8
100
AcDbSymbolTable
0
ENDTAB
0
TABLE
2
LTYPE
5
5
100
AcDbSymbolTable
0
LTYPE
5
14
100
AcDbSymbolTableRecord
100
AcDbLinetypeTableRecord
2
BYBLOCK
70
0
0
LTYPE
5
15
100
AcDbSymbolTableRecord
100
AcDbLinetypeTableRecord
2
BYLAYER
70
0
0
LTYPE
5
16
100
AcDbSymbolTableRecord
100
AcDbLinetypeTableRecord
2
DASHED
70
0
3
Dashed __ __ __ __ __ __ __ __ __ __ __ __ __ _
72
65
73
2
40
0.75
49
0.5
74
0
49
-0.25
74
0
0
ENDTAB
0
TABLE
2
LAYER
5
2
100
AcDbSymbolTable
70
3
0
LAYER
5
50
100
AcDbSymbolTableRecord
100
AcDbLayerTableRecord
2
1
70
0
62
7
6
DASHED
0
LAYER
5
51
100
AcDbSymbolTableRecord
100
AcDbLayerTableRecord
2
0
70
0
62
7
6
CONTINUOUS
0
ENDTAB
0
TABLE
2
STYLE
5
3
100
AcDbSymbolTable
70
1
0
STYLE
5
11
100
AcDbSymbolTableRecord
100
AcDbTextStyleTableRecord
2
STANDARD
70
0
0
ENDTAB
0
TABLE
2
VIEW
5
6
100
AcDbSymbolTable
70
0
0
ENDTAB
0
TABLE
2
UCS
5
7
100
AcDbSymbolTable
70
0
0
ENDTAB
0
TABLE
2
APPID
5
9
100
AcDbSymbolTable
70
2
0
APPID
5
12
100
AcDbSymbolTableRecord
100
AcDbRegAppTableRecord
2
ACAD
70
0
0
ENDTAB
0
TABLE
2
DIMSTYLE
5
A
100
AcDbSymbolTable
70
1
0
ENDTAB
0
TABLE
2
BLOCK_RECORD
5
1
100
AcDbSymbolTable
70
1
0
BLOCK_RECORD
5
1F
100
AcDbSymbolTableRecord
100
AcDbBlockTableRecord
2
*MODEL_SPACE
0
BLOCK_RECORD
5
1B
100
AcDbSymbolTableRecord
100
AcDbBlockTableRecord
2
*PAPER_SPACE
0
ENDTAB
0
ENDSEC
0
SECTION
2
BLOCKS
0
BLOCK
5
20
100
AcDbEntity
100
AcDbBlockBegin
2
*MODEL_SPACE
0
ENDBLK
5
21
100
AcDbEntity
100
AcDbBlockEnd
0
BLOCK
5
1C
100
AcDbEntity
100
AcDbBlockBegin
2
*PAPER_SPACE
0
ENDBLK
5
1D
100
AcDbEntity
100
AcDbBlockEnd
0
ENDSEC
0
SECTION
2
ENTITIES
0
POINT
5
100
100
AcDbEntity
8
0
100
AcDbPoint
10
-41.393636299999997
20
-1.5
30
0
0
POINT
5
101
100
AcDbEntity
8
0
100
AcDbPoint
10
-28.393636300000004
20
-1.5000000000000075
30
0
0
POINT
5
102
100
AcDbEntity
8
0
100
AcDbPoint
10
-54.393636299999997
20
-1.499999999999992
30
0
0
POINT
5
103
100
AcDbEntity
8
0
100
AcDbPoint
10
-54.393636299999997
20
-1.499999999999992
30
0
0
POINT
5
104
100
AcDbEntity
8
0
100
AcDbPoint
10
-41.393636299999997
20
-1.5
30
0
0
POINT
5
105
100
AcDbEntity
8
0
100
AcDbPoint
10
-28.393636300000004
20
-1.5000000000000075
30
0
0
LWPOLYLINE
5
106
100
AcDbEntity
8
0
100
AcDbPolyline
90
4
70
1
43
0.0
10
-64.091334799999998
20
5.4000000000000004
10
-64.091334799999998
20
-9.1999999999999993
10
-18.695937799999996
20
-9.2000000000000011
10
-18.695937799999989
20
5.3999999999999995
0
LINE
5
107
100
AcDbEntity
8
1
100
AcDbLine
10
-64.091334799999998
20
-1.4999999999999862
30
0
11
-18.695937799999996
21
-1.5000000000000135
31
0
0
LWPOLYLINE
5
108
100
AcDbEntity
8
0
100
AcDbPolyline
90
6
70
1
43
0.0
10
-52.079508132986916
20
2.4638757329962702
10
-56.669389298712886
20
2.486031646744586
10
-58.983517465725967
20
-1.4778440862516762
10
-56.707764467013078
20
-5.4638757329962528
10
-52.117883301287115
20
-5.4860316467445696
10
-49.803755134274034
20
-1.5221559137483074
0
LWPOLYLINE
5
109
100
AcDbEntity
8
0
100
AcDbPolyline
90
6
70
1
43
0.0
10
-39.079508132986923
20
2.4638757329962693
10
-43.669389298712893
20
2.486031646744578
10
-45.983517465725967
20
-1.4778440862516917
10
-43.707764467013071
20
-5.4638757329962653
10
-39.117883301287108
20
-5.4860316467445713
10
-36.803755134274041
20
-1.5221559137483085
0
LWPOLYLINE
5
110
100
AcDbEntity
8
0
100
AcDbPolyline
90
6
70
1
43
0.0
10
-26.079508132986934
20
2.4638757329962675
10
-30.669389298712908
20
2.4860316467445647
10
-32.983517465725974
20
-1.4778440862517097
10
-30.707764467013071
20
-5.4638757329962822
10
-26.117883301287101
20
-5.4860316467445802
10
-23.803755134274031
20
-1.5221559137483054
0
LWPOLYLINE
5
111
100
AcDbEntity
8
0
100
AcDbPolyline
90
4
70
1
43
0.0
10
-54.393636299999997
20
-2.249999999999992
10
-28.393636300000004
20
-2.2500000000000075
42
0.99999999999999989
10
-28.393636300000004
20
-0.75000000000000733
10
-54.393636299999997
20
-0.74999999999999178
42
0.99999999999999989
0
LINE
5
112
100
AcDbEntity
8
1
100
AcDbLine
10
-54.393636299999997
20
-1.499999999999992
30
0
11
-28.393636300000004
21
-1.5000000000000075
31
0
0
ENDSEC
0
SECTION
2
OBJECTS
0
DICTIONARY
5
C
100
AcDbDictionary
3
ACAD_GROUP
350
D
3
ACAD_MLINESTYLE
350
17
0
DICTIONARY
5
D
100
AcDbDictionary
0
DICTIONARY
5
1A
330
C
100
AcDbDictionary
0
DICTIONARY
5
17
100
AcDbDictionary
0
ENDSEC
0
EOF
