0
SECTION
2
HEADER
9
$INSUNITS
70
4
9
$ACADVER
1
AC1014
9
$HANDSEED
5
FFFF
0
ENDSEC
0
SECTION
2
TABLES
0
TABLE
2
VPORT
5
8
100
AcDbSymbolTable
0
ENDTAB
0
TABLE
2
LTYPE
5
5
100
AcDbSymbolTable
0
LTYPE
5
14
100
AcDbSymbolTableRecord
100
AcDbLinetypeTableRecord
2
BYBLOCK
70
0
0
LTYPE
5
15
100
AcDbSymbolTableRecord
100
AcDbLinetypeTableRecord
2
BYLAYER
70
0
0
LTYPE
5
16
100
AcDbSymbolTableRecord
100
AcDbLinetypeTableRecord
2
DASHED
70
0
3
Dashed __ __ __ __ __ __ __ __ __ __ __ __ __ _
72
65
73
2
40
0.75
49
0.5
74
0
49
-0.25
74
0
0
ENDTAB
0
TABLE
2
LAYER
5
2
100
AcDbSymbolTable
70
3
0
LAYER
5
50
100
AcDbSymbolTableRecord
100
AcDbLayerTableRecord
2
1
70
0
62
7
6
DASHED
0
LAYER
5
51
100
AcDbSymbolTableRecord
100
AcDbLayerTableRecord
2
0
70
0
62
7
6
CONTINUOUS
0
ENDTAB
0
TABLE
2
STYLE
5
3
100
AcDbSymbolTable
70
1
0
STYLE
5
11
100
AcDbSymbolTableRecord
100
AcDbTextStyleTableRecord
2
STANDARD
70
0
0
ENDTAB
0
TABLE
2
VIEW
5
6
100
AcDbSymbolTable
70
0
0
ENDTAB
0
TABLE
2
UCS
5
7
100
AcDbSymbolTable
70
0
0
ENDTAB
0
TABLE
2
APPID
5
9
100
AcDbSymbolTable
70
2
0
APPID
5
12
100
AcDbSymbolTableRecord
100
AcDbRegAppTableRecord
2
ACAD
70
0
0
ENDTAB
0
TABLE
2
DIMSTYLE
5
A
100
AcDbSymbolTable
70
1
0
ENDTAB
0
TABLE
2
BLOCK_RECORD
5
1
100
AcDbSymbolTable
70
1
0
BLOCK_RECORD
5
1F
100
AcDbSymbolTableRecord
100
AcDbBlockTableRecord
2
*MODEL_SPACE
0
BLOCK_RECORD
5
1B
100
AcDbSymbolTableRecord
100
AcDbBlockTableRecord
2
*PAPER_SPACE
0
ENDTAB
0
ENDSEC
0
SECTION
2
BLOCKS
0
BLOCK
5
20
100
AcDbEntity
100
AcDbBlockBegin
2
*MODEL_SPACE
0
ENDBLK
5
21
100
AcDbEntity
100
AcDbBlockEnd
0
BLOCK
5
1C
100
AcDbEntity
100
AcDbBlockBegin
2
*PAPER_SPACE
0
ENDBLK
5
1D
100
AcDbEntity
100
AcDbBlockEnd
0
ENDSEC
0
SECTION
2
ENTITIES
0
POINT
5
100
100
AcDbEntity
8
0
100
AcDbPoint
10
-50.433021610321312
20
-1.5000000000000009
30
-8.8817841970012523e-15
0
POINT
5
101
100
AcDbEntity
8
0
100
AcDbPoint
10
-32.408622124195986
20
-1.4999999999999942
30
-8.8817841970012523e-15
0
POINT
5
102
100
AcDbEntity
8
0
100
AcDbPoint
10
-50.433021610321312
20
-1.5000000000000009
30
-8.8817841970012523e-15
0
POINT
5
103
100
AcDbEntity
8
0
100
AcDbPoint
10
-32.408622124195986
20
-1.4999999999999942
30
-8.8817841970012523e-15
0
LWPOLYLINE
5
104
100
AcDbEntity
8
0
100
AcDbPolyline
90
4
70
1
43
0.0
10
-43.750670707465453
20
-4.5
10
-36.750670707465446
20
-4.5
10
-36.750670707465446
20
-5.4999999999999973
10
-43.750670707465453
20
-5.5000000000000018
0
LWPOLYLINE
5
105
100
AcDbEntity
8
0
100
AcDbPolyline
90
4
70
1
43
0.0
10
-62.433021610321319
20
5.4000000000000004
10
-62.433021610321319
20
-9.1999999999999993
10
-24.408622124195976
20
-9.2000000000000011
10
-24.408622124195986
20
5.3999999999999995
0
LINE
5
106
100
AcDbEntity
8
1
100
AcDbLine
10
-62.433021610321319
20
-1.5000000000000124
30
-8.8817841970012523e-15
11
-24.408622124195986
21
-1.4999999999999893
31
-8.8817841970012523e-15
0
LWPOLYLINE
5
107
100
AcDbEntity
8
0
100
AcDbPolyline
90
6
70
1
43
0.0
10
-48.131735790672714
20
2.4713453106326915
10
-52.721664626705127
20
2.4786446365009276
10
-55.022950446353732
20
-1.4927006741317657
10
-52.734307429969917
20
-5.4713453106326941
10
-48.144378593937496
20
-5.4786446365009294
10
-45.843092774288898
20
-1.5072993258682361
0
LWPOLYLINE
5
108
100
AcDbEntity
8
0
100
AcDbPolyline
90
6
70
1
43
0.0
10
-36.9985509602284
20
-1.5072993258682379
10
-34.697265140579788
20
-5.4786446365009267
10
-30.107336304547374
20
-5.4713453106326826
10
-27.818693288163566
20
-1.4927006741317501
10
-30.119979107812178
20
2.4786446365009382
10
-34.709907943844591
20
2.4713453106326941
0
LWPOLYLINE
5
109
100
AcDbEntity
8
0
100
AcDbPolyline
90
4
70
1
43
0.0
10
-50.433021610321312
20
-2.2500000000000009
10
-32.408622124195986
20
-2.2499999999999942
42
0.99999999999999989
10
-32.408622124195986
20
-0.749999999999994
10
-50.433021610321312
20
-0.75000000000000067
42
0.99999999999999989
0
LINE
5
110
100
AcDbEntity
8
1
100
AcDbLine
10
-50.433021610321312
20
-1.5000000000000009
30
-8.8817841970012523e-15
11
-32.408622124195986
21
-1.4999999999999942
31
-8.8817841970012523e-15
0
ENDSEC
0
SECTION
2
OBJECTS
0
DICTIONARY
5
C
100
AcDbDictionary
3
ACAD_GROUP
350
D
3
ACAD_MLINESTYLE
350
17
0
DICTIONARY
5
D
100
AcDbDictionary
0
DICTIONARY
5
1A
330
C
100
AcDbDictionary
0
DICTIONARY
5
17
100
AcDbDictionary
0
ENDSEC
0
EOF
